<?xml version="1.0" standalone="yes"?>

<svg version="1.1" viewBox="0.0 0.0 406.3595800524934 122.0971128608924" fill="none" stroke="none" stroke-linecap="square" stroke-miterlimit="10" xmlns="http://www.w3.org/2000/svg" xmlns:xlink="http://www.w3.org/1999/xlink"><clipPath id="p.0"><path d="m0 0l406.3596 0l0 122.097115l-406.3596 0l0 -122.097115z" clip-rule="nonzero"></path></clipPath><g clip-path="url(#p.0)"><path fill="#000000" fill-opacity="0.0" d="m0 0l406.3596 0l0 122.097115l-406.3596 0z" fill-rule="evenodd"></path><path fill="#cfe2f3" d="m57.650917 42.580112l133.48032 0l0 37.44882l-133.48032 0z" fill-rule="evenodd"></path><path stroke="#6d9eeb" stroke-width="1.0" stroke-linejoin="round" stroke-linecap="butt" d="m57.650917 42.580112l133.48032 0l0 37.44882l-133.48032 0z" fill-rule="evenodd"></path><path fill="#000000" d="m110.572014 68.22452l0 -13.59375l5.109375 0q1.546875 0 2.484375 0.40625q0.953125 0.40625 1.484375 1.265625q0.53125 0.859375 0.53125 1.796875q0 0.875 -0.46875 1.65625q-0.46875 0.765625 -1.4375 1.234375q1.234375 0.359375 1.890625 1.234375q0.671875 0.875 0.671875 2.0625q0 0.953125 -0.40625 1.78125q-0.390625 0.8125 -0.984375 1.265625q-0.59375 0.4375 -1.5 0.671875q-0.890625 0.21875 -2.1875 0.21875l-5.1875 0zm1.796875 -7.890625l2.9375 0q1.203125 0 1.71875 -0.15625q0.6875 -0.203125 1.03125 -0.671875q0.359375 -0.46875 0.359375 -1.1875q0 -0.671875 -0.328125 -1.1875q-0.328125 -0.515625 -0.9375 -0.703125q-0.59375 -0.203125 -2.0625 -0.203125l-2.71875 0l0 4.109375zm0 6.28125l3.390625 0q0.875 0 1.21875 -0.0625q0.625 -0.109375 1.046875 -0.359375q0.421875 -0.265625 0.6875 -0.765625q0.265625 -0.5 0.265625 -1.140625q0 -0.765625 -0.390625 -1.328125q-0.390625 -0.5625 -1.078125 -0.78125q-0.6875 -0.234375 -1.984375 -0.234375l-3.15625 0l0 4.671875z" fill-rule="nonzero"></path><path fill="#000000" d="m122.42184 75.22452l0 -6.21875l0.9375 0l0 0.875q0.6875 -1.015625 1.984375 -1.015625q0.5625 0 1.03125 0.203125q0.484375 0.203125 0.71875 0.53125q0.234375 0.328125 0.328125 0.765625q0.046875 0.296875 0.046875 1.03125l0 3.828125l-1.046875 0l0 -3.78125q0 -0.65625 -0.125 -0.96875q-0.125 -0.3125 -0.4375 -0.5q-0.3125 -0.203125 -0.734375 -0.203125q-0.671875 0 -1.171875 0.4375q-0.484375 0.421875 -0.484375 1.609375l0 3.40625l-1.046875 0zm6.4951706 -2.578125l0 -1.0625l3.25 0l0 1.0625l-3.25 0zm8.235474 2.578125l-1.046875 0l0 -6.71875q-0.390625 0.359375 -1.015625 0.734375q-0.609375 0.359375 -1.09375 0.53125l0 -1.015625q0.875 -0.421875 1.53125 -1.0q0.671875 -0.59375 0.953125 -1.15625l0.671875 0l0 8.625z" fill-rule="nonzero"></path><path fill="#cfe2f3" d="m265.75592 82.79835l133.48029 0l0 32.53543l-133.48029 0z" fill-rule="evenodd"></path><path stroke="#6d9eeb" stroke-width="1.0" stroke-linejoin="round" stroke-linecap="butt" d="m265.75592 82.79835l133.48029 0l0 32.53543l-133.48029 0z" fill-rule="evenodd"></path><path fill="#000000" d="m316.60614 105.98606l0 -13.59375l5.109375 0q1.546875 0 2.484375 0.40625q0.953125 0.40625 1.484375 1.265625q0.53125 0.859375 0.53125 1.796875q0 0.875 -0.46875 1.65625q-0.46875 0.765625 -1.4375 1.234375q1.234375 0.359375 1.890625 1.234375q0.671875 0.875 0.671875 2.0625q0 0.953125 -0.40625 1.78125q-0.390625 0.8125 -0.984375 1.265625q-0.59375 0.4375 -1.5 0.671875q-0.890625 0.21875 -2.1875 0.21875l-5.1875 0zm1.796875 -7.890625l2.9375 0q1.203125 0 1.71875 -0.15625q0.6875 -0.203125 1.03125 -0.671875q0.359375 -0.46875 0.359375 -1.1875q0 -0.671875 -0.328125 -1.1875q-0.328125 -0.515625 -0.9375 -0.703125q-0.59375 -0.203125 -2.0625 -0.203125l-2.71875 0l0 4.109375zm0 6.28125l3.390625 0q0.875 0 1.21875 -0.0625q0.625 -0.109375 1.046875 -0.359375q0.421875 -0.265625 0.6875 -0.765625q0.265625 -0.5 0.265625 -1.140625q0 -0.765625 -0.390625 -1.328125q-0.390625 -0.5625 -1.078125 -0.78125q-0.6875 -0.234375 -1.984375 -0.234375l-3.15625 0l0 4.671875z" fill-rule="nonzero"></path><path fill="#000000" d="m328.45596 112.98606l0 -6.21875l0.9375 0l0 0.875q0.6875 -1.015625 1.984375 -1.015625q0.5625 0 1.03125 0.203125q0.484375 0.203125 0.71875 0.53125q0.234375 0.328125 0.328125 0.765625q0.046875 0.296875 0.046875 1.03125l0 3.828125l-1.046875 0l0 -3.78125q0 -0.65625 -0.125 -0.96875q-0.125 -0.3125 -0.4375 -0.5q-0.3125 -0.203125 -0.734375 -0.203125q-0.671875 0 -1.171875 0.4375q-0.484375 0.421875 -0.484375 1.609375l0 3.40625l-1.046875 0zm8.932678 2.53125q-0.875 -1.109375 -1.484375 -2.578125q-0.59375 -1.484375 -0.59375 -3.0625q0 -1.390625 0.4375 -2.671875q0.53125 -1.484375 1.640625 -2.953125l0.75 0q-0.703125 1.21875 -0.9375 1.734375q-0.359375 0.8125 -0.5625 1.6875q-0.25 1.09375 -0.25 2.203125q0 2.828125 1.75 5.640625l-0.75 0zm7.3760986 -3.546875l0 1.015625l-5.6875 0q0 -0.375 0.125 -0.734375q0.21875 -0.578125 0.6875 -1.140625q0.484375 -0.5625 1.390625 -1.296875q1.40625 -1.15625 1.890625 -1.828125q0.5 -0.671875 0.5 -1.265625q0 -0.625 -0.453125 -1.046875q-0.453125 -0.4375 -1.171875 -0.4375q-0.765625 0 -1.21875 0.453125q-0.453125 0.453125 -0.46875 1.265625l-1.078125 -0.109375q0.109375 -1.21875 0.828125 -1.84375q0.734375 -0.640625 1.96875 -0.640625q1.234375 0 1.953125 0.6875q0.71875 0.6875 0.71875 1.703125q0 0.515625 -0.21875 1.015625q-0.203125 0.484375 -0.703125 1.046875q-0.484375 0.546875 -1.609375 1.5q-0.953125 0.796875 -1.234375 1.09375q-0.265625 0.28125 -0.4375 0.5625l4.21875 0zm2.3545227 3.546875l-0.75 0q1.75 -2.8125 1.75 -5.640625q0 -1.09375 -0.25 -2.1875q-0.203125 -0.875 -0.5625 -1.6875q-0.234375 -0.515625 -0.9375 -1.75l0.75 0q1.09375 1.46875 1.625 2.953125q0.453125 1.28125 0.453125 2.671875q0 1.578125 -0.609375 3.0625q-0.609375 1.46875 -1.46875 2.578125z" fill-rule="nonzero"></path><path fill="#cfe2f3" d="m265.75696 8.083502l133.48029 0l0 32.53543l-133.48029 0z" fill-rule="evenodd"></path><path stroke="#6d9eeb" stroke-width="1.0" stroke-linejoin="round" stroke-linecap="butt" d="m265.75696 8.083502l133.48029 0l0 32.53543l-133.48029 0z" fill-rule="evenodd"></path><path fill="#000000" d="m316.60718 31.271215l0 -13.59375l5.109375 0q1.546875 0 2.484375 0.40625q0.953125 0.40625 1.484375 1.265625q0.53125 0.859375 0.53125 1.796875q0 0.875 -0.46875 1.65625q-0.46875 0.765625 -1.4375 1.234375q1.234375 0.359375 1.890625 1.234375q0.671875 0.875 0.671875 2.0625q0 0.953125 -0.40625 1.78125q-0.390625 0.8125 -0.984375 1.265625q-0.59375 0.4375 -1.5 0.671875q-0.890625 0.21875 -2.1875 0.21875l-5.1875 0zm1.796875 -7.890625l2.9375 0q1.203125 0 1.71875 -0.15625q0.6875 -0.203125 1.03125 -0.671875q0.359375 -0.46875 0.359375 -1.1875q0 -0.671875 -0.328125 -1.1875q-0.328125 -0.515625 -0.9375 -0.703125q-0.59375 -0.203125 -2.0625 -0.203125l-2.71875 0l0 4.109375zm0 6.28125l3.390625 0q0.875 0 1.21875 -0.0625q0.625 -0.109375 1.046875 -0.359375q0.421875 -0.265625 0.6875 -0.765625q0.265625 -0.5 0.265625 -1.140625q0 -0.765625 -0.390625 -1.328125q-0.390625 -0.5625 -1.078125 -0.78125q-0.6875 -0.234375 -1.984375 -0.234375l-3.15625 0l0 4.671875z" fill-rule="nonzero"></path><path fill="#000000" d="m328.457 38.271217l0 -6.21875l0.9375 0l0 0.875q0.6875 -1.0156269 1.984375 -1.0156269q0.5625 0 1.03125 0.2031269q0.484375 0.203125 0.71875 0.53125q0.234375 0.328125 0.328125 0.765625q0.046875 0.296875 0.046875 1.03125l0 3.828125l-1.046875 0l0 -3.78125q0 -0.65625 -0.125 -0.96875q-0.125 -0.3125 -0.4375 -0.5q-0.3125 -0.203125 -0.734375 -0.203125q-0.671875 0 -1.171875 0.4375q-0.484375 0.421875 -0.484375 1.609375l0 3.40625l-1.046875 0zm8.932678 2.53125q-0.875 -1.109375 -1.484375 -2.578125q-0.59375 -1.484375 -0.59375 -3.0625q0 -1.390625 0.4375 -2.671875q0.53125 -1.4843769 1.640625 -2.953127l0.75 0q-0.703125 1.21875 -0.9375 1.734375q-0.359375 0.8125019 -0.5625 1.6875019q-0.25 1.09375 -0.25 2.203125q0 2.828125 1.75 5.640625l-0.75 0zm5.7979736 -2.53125l-1.046875 0l0 -6.718752q-0.390625 0.359375 -1.015625 0.7343769q-0.609375 0.359375 -1.09375 0.53125l0 -1.0156269q0.875 -0.421875 1.53125 -1.0q0.671875 -0.59375 0.953125 -1.15625l0.671875 0l0 8.625002zm3.9326477 2.53125l-0.75 0q1.75 -2.8125 1.75 -5.640625q0 -1.09375 -0.25 -2.1875q-0.203125 -0.875 -0.5625 -1.6875019q-0.234375 -0.515625 -0.9375 -1.75l0.75 0q1.09375 1.46875 1.625 2.953127q0.453125 1.28125 0.453125 2.671875q0 1.578125 -0.609375 3.0625q-0.609375 1.46875 -1.46875 2.578125z" fill-rule="nonzero"></path><path fill="#000000" fill-opacity="0.0" d="m265.75696 24.35122l-74.61418 36.94488" fill-rule="evenodd"></path><path stroke="#1c4587" stroke-width="1.0" stroke-linejoin="round" stroke-linecap="butt" d="m265.75696 24.35122l-69.23721 34.2825" fill-rule="evenodd"></path><path fill="#1c4587" stroke="#1c4587" stroke-width="1.0" stroke-linecap="butt" d="m195.78682 57.153503l-3.3339386 3.493908l4.7997894 -0.53347397z" fill-rule="evenodd"></path><path fill="#000000" fill-opacity="0.0" d="m265.75592 99.06606l-74.61418 -37.76378" fill-rule="evenodd"></path><path stroke="#1c4587" stroke-width="1.0" stroke-linejoin="round" stroke-linecap="butt" d="m265.75592 99.066055l-69.2608 -35.054314" fill-rule="evenodd"></path><path fill="#1c4587" stroke="#1c4587" stroke-width="1.0" stroke-linecap="butt" d="m197.24101 62.538017l-4.794922 -0.57557297l3.3031464 3.5230293z" fill-rule="evenodd"></path><path fill="#000000" fill-opacity="0.0" d="m57.64919 56.40234l-54.14173 10.614178" fill-rule="evenodd"></path><path stroke="#1c4587" stroke-width="1.0" stroke-linejoin="round" stroke-linecap="butt" d="m57.649193 56.402344l-48.253815 9.459885" fill-rule="evenodd"></path><path fill="#1c4587" stroke="#1c4587" stroke-width="1.0" stroke-linecap="butt" d="m9.077615 64.24135l-4.1355624 2.493927l4.77109 0.7478256z" fill-rule="evenodd"></path></g></svg>

