<?xml version="1.0" standalone="yes"?>

<svg version="1.1" viewBox="0.0 0.0 554.509186351706 128.3464566929134" fill="none" stroke="none" stroke-linecap="square" stroke-miterlimit="10" xmlns="http://www.w3.org/2000/svg" xmlns:xlink="http://www.w3.org/1999/xlink"><clipPath id="p.0"><path d="m0 0l554.5092 0l0 128.34645l-554.5092 0l0 -128.34645z" clip-rule="nonzero"></path></clipPath><g clip-path="url(#p.0)"><path fill="#000000" fill-opacity="0.0" d="m0 0l554.5092 0l0 128.34645l-554.5092 0z" fill-rule="evenodd"></path><path stroke="#999999" stroke-width="1.0" stroke-linecap="butt" d="m0 -0.49868765l0 127.98425" fill-rule="nonzero"></path><path stroke="#999999" stroke-width="1.0" stroke-linecap="butt" d="m40.194225 -0.49868765l0 30.396326" fill-rule="nonzero"></path><path stroke="#000000" stroke-width="1.0" stroke-linecap="butt" d="m40.194225 29.897638l0 97.58793" fill-rule="nonzero"></path><path stroke="#999999" stroke-width="1.0" stroke-linecap="butt" d="m104.16535 -0.49868765l0 31.393702" fill-rule="nonzero"></path><path stroke="#999999" stroke-width="1.0" stroke-linecap="butt" d="m168.13649 -0.49868765l0 31.393702" fill-rule="nonzero"></path><path stroke="#999999" stroke-width="1.0" stroke-linecap="butt" d="m232.1076 -0.49868765l0 31.393702" fill-rule="nonzero"></path><path stroke="#999999" stroke-width="1.0" stroke-linecap="butt" d="m296.07874 -0.49868765l0 31.393702" fill-rule="nonzero"></path><path stroke="#999999" stroke-width="1.0" stroke-linecap="butt" d="m360.04987 -0.49868765l0 31.393702" fill-rule="nonzero"></path><path stroke="#999999" stroke-width="1.0" stroke-linecap="butt" d="m424.021 -0.49868765l0 31.393702" fill-rule="nonzero"></path><path stroke="#999999" stroke-width="1.0" stroke-linecap="butt" d="m487.99213 -0.49868765l0 31.393702" fill-rule="nonzero"></path><path stroke="#999999" stroke-width="1.0" stroke-linecap="butt" d="m551.96326 -0.49868765l0 30.396326" fill-rule="nonzero"></path><path stroke="#000000" stroke-width="1.0" stroke-linecap="butt" d="m551.96326 29.897638l0 97.58793" fill-rule="nonzero"></path><path stroke="#999999" stroke-width="1.0" stroke-linecap="butt" d="m-0.49868765 0l552.9606 0" fill-rule="nonzero"></path><path stroke="#999999" stroke-width="1.0" stroke-linecap="butt" d="m-0.49868765 30.396326l40.194225 0" fill-rule="nonzero"></path><path stroke="#000000" stroke-width="1.0" stroke-linecap="butt" d="m39.695538 30.396326l512.76636 0" fill-rule="nonzero"></path><path stroke="#999999" stroke-width="1.0" stroke-linecap="butt" d="m-0.49868765 62.593174l40.194225 0" fill-rule="nonzero"></path><path stroke="#000000" stroke-width="1.0" stroke-linecap="butt" d="m39.695538 62.593174l512.76636 0" fill-rule="nonzero"></path><path stroke="#999999" stroke-width="1.0" stroke-linecap="butt" d="m-0.49868765 94.79002l40.194225 0" fill-rule="nonzero"></path><path stroke="#000000" stroke-width="1.0" stroke-linecap="butt" d="m39.695538 94.79002l512.76636 0" fill-rule="nonzero"></path><path stroke="#999999" stroke-width="1.0" stroke-linecap="butt" d="m-0.49868765 126.98688l40.194225 0" fill-rule="nonzero"></path><path stroke="#000000" stroke-width="1.0" stroke-linecap="butt" d="m39.695538 126.98688l512.76636 0" fill-rule="nonzero"></path><path fill="#999999" d="m70.28331 13.851875q0 -1.015625 0.203125 -1.625q0.21875 -0.625 0.625 -0.953125q0.421875 -0.34375 1.046875 -0.34375q0.453125 0 0.796875 0.1875q0.359375 0.1875 0.578125 0.53125q0.234375 0.34375 0.359375 0.859375q0.125 0.5 0.125 1.34375q0 1.015625 -0.203125 1.640625q-0.203125 0.609375 -0.625 0.953125q-0.40625 0.328125 -1.03125 0.328125q-0.828125 0 -1.296875 -0.59375q-0.578125 -0.71875 -0.578125 -2.328125zm0.734375 0q0 1.40625 0.328125 1.875q0.328125 0.46875 0.8125 0.46875q0.484375 0 0.8125 -0.46875q0.328125 -0.46875 0.328125 -1.875q0 -1.40625 -0.328125 -1.875q-0.328125 -0.46875 -0.828125 -0.46875q-0.484375 0 -0.765625 0.40625q-0.359375 0.53125 -0.359375 1.9375z" fill-rule="nonzero"></path><path fill="#999999" d="m136.91069 16.68l-0.703125 0l0 -4.484375q-0.25 0.25 -0.671875 0.5q-0.40625 0.234375 -0.734375 0.34375l0 -0.671875q0.59375 -0.28125 1.03125 -0.671875q0.4375 -0.390625 0.625 -0.765625l0.453125 0l0 5.75z" fill-rule="nonzero"></path><path fill="#999999" d="m201.9287 16.008125l0 0.671875l-3.78125 0q-0.015625 -0.25 0.078125 -0.484375q0.140625 -0.390625 0.453125 -0.765625q0.328125 -0.375 0.921875 -0.875q0.9375 -0.765625 1.265625 -1.203125q0.328125 -0.453125 0.328125 -0.84375q0 -0.421875 -0.296875 -0.703125q-0.296875 -0.296875 -0.78125 -0.296875q-0.5 0 -0.8125 0.3125q-0.296875 0.296875 -0.3125 0.84375l-0.71875 -0.078125q0.078125 -0.8125 0.5625 -1.234375q0.484375 -0.421875 1.296875 -0.421875q0.828125 0 1.296875 0.453125q0.484375 0.453125 0.484375 1.140625q0 0.34375 -0.140625 0.671875q-0.140625 0.328125 -0.46875 0.703125q-0.3125 0.359375 -1.078125 1.0q-0.625 0.53125 -0.8125 0.71875q-0.171875 0.1875 -0.296875 0.390625l2.8125 0z" fill-rule="nonzero"></path><path fill="#999999" d="m262.2123 15.164375l0.703125 -0.09375q0.109375 0.59375 0.40625 0.859375q0.296875 0.265625 0.703125 0.265625q0.5 0 0.84375 -0.34375q0.34375 -0.34375 0.34375 -0.84375q0 -0.484375 -0.328125 -0.796875q-0.3125 -0.328125 -0.796875 -0.328125q-0.203125 0 -0.5 0.078125l0.078125 -0.609375q0.078125 0 0.125 0q0.4375 0 0.796875 -0.234375q0.359375 -0.234375 0.359375 -0.71875q0 -0.390625 -0.265625 -0.640625q-0.25 -0.25 -0.671875 -0.25q-0.40625 0 -0.6875 0.265625q-0.265625 0.25 -0.34375 0.765625l-0.703125 -0.125q0.125 -0.703125 0.578125 -1.09375q0.46875 -0.390625 1.140625 -0.390625q0.46875 0 0.859375 0.203125q0.40625 0.203125 0.609375 0.546875q0.21875 0.34375 0.21875 0.734375q0 0.375 -0.203125 0.6875q-0.203125 0.296875 -0.59375 0.46875q0.515625 0.125 0.796875 0.5q0.28125 0.359375 0.28125 0.921875q0 0.75 -0.546875 1.28125q-0.546875 0.515625 -1.390625 0.515625q-0.75 0 -1.25 -0.453125q-0.5 -0.453125 -0.5625 -1.171875z" fill-rule="nonzero"></path><path fill="#999999" d="m328.43344 16.68l0 -1.375l-2.484375 0l0 -0.640625l2.609375 -3.71875l0.578125 0l0 3.71875l0.765625 0l0 0.640625l-0.765625 0l0 1.375l-0.703125 0zm0 -2.015625l0 -2.578125l-1.796875 2.578125l1.796875 0z" fill-rule="nonzero"></path><path fill="#999999" d="m390.13895 15.18l0.75 -0.0625q0.078125 0.53125 0.375 0.8125q0.296875 0.265625 0.71875 0.265625q0.515625 0 0.859375 -0.375q0.359375 -0.390625 0.359375 -1.015625q0 -0.609375 -0.34375 -0.953125q-0.34375 -0.34375 -0.890625 -0.34375q-0.328125 0 -0.609375 0.15625q-0.265625 0.140625 -0.421875 0.390625l-0.671875 -0.078125l0.5625 -2.953125l2.84375 0l0 0.671875l-2.28125 0l-0.3125 1.546875q0.515625 -0.359375 1.078125 -0.359375q0.75 0 1.265625 0.515625q0.515625 0.515625 0.515625 1.34375q0 0.765625 -0.453125 1.34375q-0.546875 0.6875 -1.5 0.6875q-0.78125 0 -1.28125 -0.4375q-0.484375 -0.4375 -0.5625 -1.15625z" fill-rule="nonzero"></path><path fill="#999999" d="m457.76633 12.351875l-0.703125 0.0625q-0.09375 -0.421875 -0.265625 -0.609375q-0.28125 -0.296875 -0.703125 -0.296875q-0.328125 0 -0.59375 0.1875q-0.328125 0.234375 -0.515625 0.703125q-0.1875 0.46875 -0.203125 1.328125q0.25 -0.390625 0.609375 -0.578125q0.375 -0.1875 0.78125 -0.1875q0.703125 0 1.1875 0.515625q0.5 0.515625 0.5 1.34375q0 0.53125 -0.234375 1.0q-0.21875 0.46875 -0.625 0.71875q-0.40625 0.234375 -0.921875 0.234375q-0.890625 0 -1.453125 -0.640625q-0.546875 -0.65625 -0.546875 -2.140625q0 -1.65625 0.625 -2.40625q0.53125 -0.65625 1.4375 -0.65625q0.671875 0 1.09375 0.375q0.4375 0.375 0.53125 1.046875zm-2.875 2.46875q0 0.359375 0.15625 0.703125q0.15625 0.328125 0.421875 0.5q0.28125 0.171875 0.59375 0.171875q0.4375 0 0.75 -0.359375q0.328125 -0.359375 0.328125 -0.96875q0 -0.59375 -0.3125 -0.9375q-0.3125 -0.34375 -0.796875 -0.34375q-0.46875 0 -0.8125 0.34375q-0.328125 0.34375 -0.328125 0.890625z" fill-rule="nonzero"></path><path fill="#999999" d="m518.12805 11.695625l0 -0.671875l3.71875 0l0 0.546875q-0.546875 0.578125 -1.09375 1.546875q-0.53125 0.96875 -0.828125 1.984375q-0.203125 0.71875 -0.265625 1.578125l-0.71875 0q0 -0.671875 0.25 -1.625q0.265625 -0.96875 0.734375 -1.859375q0.484375 -0.890625 1.015625 -1.5l-2.8125 0z" fill-rule="nonzero"></path><path fill="#999999" d="m18.200628 46.346626q0 -1.015625 0.203125 -1.625q0.21875 -0.625 0.625 -0.953125q0.421875 -0.34375 1.046875 -0.34375q0.453125 0 0.796875 0.1875q0.359375 0.1875 0.578125 0.53125q0.234375 0.34375 0.359375 0.859375q0.125 0.5 0.125 1.34375q0 1.015625 -0.203125 1.640625q-0.203125 0.609375 -0.625 0.953125q-0.40625 0.328125 -1.03125 0.328125q-0.828125 0 -1.296875 -0.59375q-0.578125 -0.71875 -0.578125 -2.328125zm0.734375 0q0 1.40625 0.328125 1.875q0.328125 0.46875 0.8125 0.46875q0.484375 0 0.8125 -0.46875q0.328125 -0.46875 0.328125 -1.875q0 -1.40625 -0.328125 -1.875q-0.328125 -0.46875 -0.828125 -0.46875q-0.484375 0 -0.765625 0.40625q-0.359375 0.53125 -0.359375 1.9375z" fill-rule="nonzero"></path><path fill="#000000" d="m285.5452 50.23475l-3.046875 -7.875l1.125 0l2.046875 5.71875q0.25 0.6875 0.421875 1.296875q0.171875 -0.65625 0.421875 -1.296875l2.125 -5.71875l1.0625 0l-3.078125 7.875l-1.078125 0zm8.4670105 -0.703125q-0.546875 0.453125 -1.046875 0.640625q-0.484375 0.1875 -1.0625 0.1875q-0.9375 0 -1.453125 -0.453125q-0.5 -0.46875 -0.5 -1.171875q0 -0.421875 0.1875 -0.765625q0.203125 -0.34375 0.5 -0.546875q0.3125 -0.21875 0.703125 -0.328125q0.28125 -0.078125 0.859375 -0.140625q1.171875 -0.140625 1.71875 -0.34375q0.015625 -0.1875 0.015625 -0.25q0 -0.59375 -0.28125 -0.828125q-0.359375 -0.328125 -1.09375 -0.328125q-0.6875 0 -1.015625 0.234375q-0.3125 0.234375 -0.46875 0.84375l-0.953125 -0.125q0.125 -0.609375 0.421875 -0.984375q0.296875 -0.375 0.859375 -0.5625q0.5625 -0.203125 1.296875 -0.203125q0.734375 0 1.1875 0.171875q0.453125 0.171875 0.65625 0.4375q0.21875 0.25 0.3125 0.640625q0.046875 0.25 0.046875 0.90625l0 1.28125q0 1.34375 0.0625 1.703125q0.0625 0.359375 0.25 0.6875l-1.015625 0q-0.15625 -0.296875 -0.1875 -0.703125zm-0.09375 -2.15625q-0.515625 0.21875 -1.578125 0.359375q-0.59375 0.09375 -0.84375 0.203125q-0.234375 0.09375 -0.375 0.3125q-0.140625 0.203125 -0.140625 0.453125q0 0.390625 0.296875 0.65625q0.296875 0.25 0.859375 0.25q0.5625 0 0.984375 -0.25q0.4375 -0.25 0.65625 -0.671875q0.140625 -0.328125 0.140625 -0.96875l0 -0.34375zm2.2702332 2.859375l0 -7.875l0.96875 0l0 7.875l-0.96875 0zm6.133087 0l0 -0.84375q-0.671875 0.96875 -1.8125 0.96875q-0.5 0 -0.953125 -0.1875q-0.4375 -0.203125 -0.65625 -0.484375q-0.203125 -0.296875 -0.28125 -0.71875q-0.0625 -0.28125 -0.0625 -0.90625l0 -3.53125l0.96875 0l0 3.15625q0 0.765625 0.0625 1.03125q0.09375 0.375 0.375 0.59375q0.296875 0.21875 0.734375 0.21875q0.4375 0 0.8125 -0.21875q0.390625 -0.234375 0.546875 -0.609375q0.15625 -0.390625 0.15625 -1.109375l0 -3.0625l0.96875 0l0 5.703125l-0.859375 0zm6.0827637 -1.84375l1.0 0.125q-0.234375 0.875 -0.875 1.359375q-0.640625 0.484375 -1.625 0.484375q-1.25 0 -1.984375 -0.765625q-0.734375 -0.765625 -0.734375 -2.15625q0 -1.453125 0.734375 -2.234375q0.75 -0.796875 1.921875 -0.796875q1.15625 0 1.875 0.78125q0.71875 0.765625 0.71875 2.1875q0 0.078125 0 0.25l-4.25 0q0.046875 0.9375 0.515625 1.4375q0.484375 0.5 1.203125 0.5q0.53125 0 0.90625 -0.265625q0.375 -0.28125 0.59375 -0.90625zm-3.171875 -1.5625l3.1875 0q-0.0625 -0.71875 -0.359375 -1.078125q-0.46875 -0.546875 -1.203125 -0.546875q-0.671875 0 -1.125 0.453125q-0.453125 0.4375 -0.5 1.171875z" fill-rule="nonzero"></path><path fill="#999999" d="m19.294378 78.26222q-0.4375 -0.15625 -0.65625 -0.453125q-0.203125 -0.296875 -0.203125 -0.71875q0 -0.625 0.4375 -1.046875q0.453125 -0.421875 1.203125 -0.421875q0.75 0 1.203125 0.4375q0.453125 0.4375 0.453125 1.0625q0 0.390625 -0.203125 0.6875q-0.203125 0.296875 -0.640625 0.453125q0.53125 0.171875 0.796875 0.5625q0.28125 0.375 0.28125 0.90625q0 0.734375 -0.515625 1.234375q-0.515625 0.5 -1.359375 0.5q-0.859375 0 -1.375 -0.5q-0.515625 -0.5 -0.515625 -1.25q0 -0.5625 0.28125 -0.9375q0.28125 -0.375 0.8125 -0.515625zm-0.140625 -1.1875q0 0.40625 0.25 0.671875q0.265625 0.25 0.6875 0.25q0.40625 0 0.65625 -0.25q0.265625 -0.265625 0.265625 -0.640625q0 -0.375 -0.265625 -0.640625q-0.265625 -0.265625 -0.671875 -0.265625q-0.390625 0 -0.65625 0.265625q-0.265625 0.25 -0.265625 0.609375zm-0.234375 2.640625q0 0.296875 0.140625 0.578125q0.140625 0.28125 0.421875 0.4375q0.28125 0.15625 0.609375 0.15625q0.5 0 0.828125 -0.3125q0.328125 -0.328125 0.328125 -0.828125q0 -0.515625 -0.34375 -0.84375q-0.328125 -0.328125 -0.828125 -0.328125q-0.5 0 -0.828125 0.328125q-0.328125 0.328125 -0.328125 0.8125z" fill-rule="nonzero"></path><path fill="#000000" d="m238.8253 79.90035l0.984375 -0.078125q0.0625 0.578125 0.3125 0.96875q0.265625 0.375 0.796875 0.609375q0.53125 0.234375 1.203125 0.234375q0.609375 0 1.0625 -0.171875q0.453125 -0.1875 0.671875 -0.484375q0.234375 -0.3125 0.234375 -0.6875q0 -0.375 -0.21875 -0.640625q-0.21875 -0.28125 -0.71875 -0.46875q-0.3125 -0.125 -1.40625 -0.375q-1.078125 -0.265625 -1.515625 -0.5q-0.5625 -0.296875 -0.84375 -0.734375q-0.265625 -0.4375 -0.265625 -0.984375q0 -0.59375 0.328125 -1.109375q0.34375 -0.515625 0.984375 -0.78125q0.65625 -0.28125 1.453125 -0.28125q0.875 0 1.546875 0.296875q0.671875 0.28125 1.03125 0.828125q0.359375 0.546875 0.390625 1.234375l-1.0 0.078125q-0.078125 -0.75 -0.546875 -1.125q-0.46875 -0.390625 -1.375 -0.390625q-0.9375 0 -1.375 0.359375q-0.4375 0.34375 -0.4375 0.828125q0 0.421875 0.3125 0.703125q0.296875 0.265625 1.5625 0.5625q1.28125 0.28125 1.75 0.5q0.6875 0.3125 1.015625 0.796875q0.328125 0.484375 0.328125 1.125q0 0.625 -0.359375 1.1875q-0.359375 0.546875 -1.046875 0.859375q-0.671875 0.3125 -1.515625 0.3125q-1.0625 0 -1.78125 -0.3125q-0.71875 -0.3125 -1.140625 -0.9375q-0.40625 -0.625 -0.421875 -1.421875zm11.0607605 0.4375l0.9375 0.125q-0.140625 0.984375 -0.796875 1.546875q-0.640625 0.546875 -1.5625 0.546875q-1.171875 0 -1.890625 -0.765625q-0.703125 -0.765625 -0.703125 -2.1875q0 -0.921875 0.296875 -1.609375q0.3125 -0.703125 0.9375 -1.046875q0.625 -0.34375 1.359375 -0.34375q0.921875 0 1.515625 0.46875q0.59375 0.46875 0.765625 1.328125l-0.953125 0.140625q-0.125 -0.5625 -0.46875 -0.84375q-0.34375 -0.296875 -0.828125 -0.296875q-0.71875 0 -1.1875 0.53125q-0.453125 0.515625 -0.453125 1.640625q0 1.15625 0.4375 1.671875q0.4375 0.515625 1.15625 0.515625q0.5625 0 0.9375 -0.34375q0.390625 -0.34375 0.5 -1.078125zm1.59375 2.09375l0 -5.703125l0.859375 0l0 0.859375q0.34375 -0.609375 0.625 -0.796875q0.28125 -0.1875 0.609375 -0.1875q0.5 0 1.0 0.3125l-0.328125 0.890625q-0.359375 -0.203125 -0.71875 -0.203125q-0.3125 0 -0.5625 0.1875q-0.25 0.1875 -0.359375 0.53125q-0.15625 0.515625 -0.15625 1.125l0 2.984375l-0.96875 0zm3.5642395 -6.765625l0 -1.109375l0.96873474 0l0 1.109375l-0.96873474 0zm0 6.765625l0 -5.703125l0.96873474 0l0 5.703125l-0.96873474 0zm2.3518524 2.1875l0 -7.890625l0.890625 0l0 0.734375q0.3125 -0.421875 0.703125 -0.640625q0.390625 -0.21875 0.953125 -0.21875q0.71875 0 1.28125 0.375q0.5625 0.375 0.84375 1.0625q0.28125 0.671875 0.28125 1.5q0 0.875 -0.3125 1.578125q-0.3125 0.6875 -0.921875 1.0625q-0.59375 0.375 -1.25 0.375q-0.484375 0 -0.875 -0.203125q-0.375 -0.203125 -0.625 -0.515625l0 2.78125l-0.96875 0zm0.875 -5.0q0 1.09375 0.453125 1.625q0.453125 0.515625 1.078125 0.515625q0.640625 0 1.09375 -0.53125q0.46875 -0.546875 0.46875 -1.703125q0 -1.078125 -0.453125 -1.625q-0.4375 -0.546875 -1.0625 -0.546875q-0.625 0 -1.109375 0.578125q-0.46875 0.578125 -0.46875 1.6875zm7.176483 1.953125l0.125 0.84375q-0.40625 0.09375 -0.71875 0.09375q-0.53125 0 -0.828125 -0.171875q-0.28125 -0.171875 -0.40625 -0.4375q-0.109375 -0.265625 -0.109375 -1.140625l0 -3.28125l-0.71875 0l0 -0.75l0.71875 0l0 -1.40625l0.953125 -0.59375l0 2.0l0.984375 0l0 0.75l-0.984375 0l0 3.34375q0 0.40625 0.046875 0.53125q0.0625 0.109375 0.171875 0.1875q0.125 0.0625 0.328125 0.0625q0.171875 0 0.4375 -0.03125zm3.8900452 0.859375l0 -7.875l1.03125 0l0 6.953125l3.875 0l0 0.921875l-4.90625 0zm9.739014 -1.84375l1.0 0.125q-0.234375 0.875 -0.875 1.359375q-0.640625 0.484375 -1.625 0.484375q-1.25 0 -1.984375 -0.765625q-0.734375 -0.765625 -0.734375 -2.15625q0 -1.453125 0.734375 -2.234375q0.75 -0.796875 1.921875 -0.796875q1.15625 0 1.875 0.78125q0.71875 0.765625 0.71875 2.1875q0 0.078125 0 0.25l-4.25 0q0.046875 0.9375 0.515625 1.4375q0.484375 0.5 1.203125 0.5q0.53125 0 0.90625 -0.265625q0.375 -0.28125 0.59375 -0.90625zm-3.171875 -1.5625l3.1875 0q-0.0625 -0.71875 -0.359375 -1.078125q-0.46875 -0.546875 -1.203125 -0.546875q-0.671875 0 -1.125 0.453125q-0.453125 0.4375 -0.5 1.171875zm5.192108 3.40625l0 -5.703125l0.875 0l0 0.8125q0.625 -0.9375 1.8125 -0.9375q0.515625 0 0.953125 0.1875q0.4375 0.171875 0.640625 0.484375q0.21875 0.296875 0.3125 0.703125q0.046875 0.28125 0.046875 0.953125l0 3.5l-0.96875 0l0 -3.46875q0 -0.59375 -0.109375 -0.875q-0.109375 -0.296875 -0.40625 -0.46875q-0.28125 -0.1875 -0.671875 -0.1875q-0.609375 0 -1.0625 0.390625q-0.453125 0.390625 -0.453125 1.5l0 3.109375l-0.96875 0zm5.7546387 0.46875l0.9375 0.140625q0.0625 0.4375 0.328125 0.640625q0.359375 0.265625 0.984375 0.265625q0.671875 0 1.03125 -0.265625q0.375 -0.265625 0.5 -0.75q0.078125 -0.296875 0.078125 -1.25q-0.640625 0.75 -1.59375 0.75q-1.171875 0 -1.8125 -0.84375q-0.640625 -0.859375 -0.640625 -2.046875q0 -0.8125 0.296875 -1.5q0.296875 -0.6875 0.84375 -1.0625q0.5625 -0.375 1.328125 -0.375q1.0 0 1.65625 0.8125l0 -0.6875l0.890625 0l0 4.921875q0 1.34375 -0.265625 1.890625q-0.265625 0.5625 -0.859375 0.875q-0.59375 0.328125 -1.453125 0.328125q-1.015625 0 -1.640625 -0.46875q-0.625 -0.453125 -0.609375 -1.375zm0.796875 -3.421875q0 1.125 0.4375 1.640625q0.453125 0.515625 1.125 0.515625q0.671875 0 1.125 -0.515625q0.453125 -0.515625 0.453125 -1.609375q0 -1.046875 -0.46875 -1.578125q-0.46875 -0.53125 -1.125 -0.53125q-0.640625 0 -1.09375 0.53125q-0.453125 0.515625 -0.453125 1.546875zm7.426483 2.09375l0.125 0.84375q-0.40625 0.09375 -0.71875 0.09375q-0.53125 0 -0.828125 -0.171875q-0.28125 -0.171875 -0.40625 -0.4375q-0.109375 -0.265625 -0.109375 -1.140625l0 -3.28125l-0.71875 0l0 -0.75l0.71875 0l0 -1.40625l0.953125 -0.59375l0 2.0l0.984375 0l0 0.75l-0.984375 0l0 3.34375q0 0.40625 0.046875 0.53125q0.0625 0.109375 0.171875 0.1875q0.125 0.0625 0.328125 0.0625q0.171875 0 0.4375 -0.03125zm0.83566284 0.859375l0 -7.875l0.96875 0l0 2.828125q0.6875 -0.78125 1.71875 -0.78125q0.625 0 1.09375 0.25q0.46875 0.25 0.671875 0.6875q0.203125 0.4375 0.203125 1.28125l0 3.609375l-0.96875 0l0 -3.609375q0 -0.734375 -0.3125 -1.0625q-0.3125 -0.328125 -0.890625 -0.328125q-0.4375 0 -0.8125 0.21875q-0.375 0.21875 -0.546875 0.609375q-0.15625 0.375 -0.15625 1.046875l0 3.125l-0.96875 0zm8.918396 2.1875l0 -10.0625l2.125 0l0 0.796875l-1.15625 0l0 8.46875l1.15625 0l0 0.796875l-2.125 0zm6.3043823 -2.1875l-0.96875 0l0 -6.15625q-0.34375 0.328125 -0.90625 0.671875q-0.5625 0.328125 -1.015625 0.484375l0 -0.9375q0.8125 -0.375 1.40625 -0.90625q0.609375 -0.546875 0.859375 -1.0625l0.625 0l0 7.90625zm2.1765137 -2.359375l0 -0.96875l2.96875 0l0 0.96875l-2.96875 0zm3.814209 0.53125l0.921875 -0.078125q0.125 0.65625 0.453125 0.953125q0.328125 0.296875 0.859375 0.296875q0.4375 0 0.765625 -0.203125q0.34375 -0.203125 0.5625 -0.546875q0.21875 -0.34375 0.359375 -0.921875q0.140625 -0.578125 0.140625 -1.1875q0 -0.0625 0 -0.1875q-0.296875 0.453125 -0.796875 0.75q-0.5 0.28125 -1.09375 0.28125q-0.96875 0 -1.65625 -0.703125q-0.671875 -0.71875 -0.671875 -1.875q0 -1.203125 0.703125 -1.921875q0.71875 -0.734375 1.78125 -0.734375q0.765625 0 1.390625 0.421875q0.640625 0.40625 0.96875 1.171875q0.34375 0.765625 0.34375 2.21875q0 1.5 -0.328125 2.40625q-0.328125 0.890625 -0.984375 1.359375q-0.640625 0.46875 -1.515625 0.46875q-0.921875 0 -1.515625 -0.515625q-0.578125 -0.515625 -0.6875 -1.453125zm3.953125 -3.46875q0 -0.828125 -0.453125 -1.3125q-0.4375 -0.5 -1.0625 -0.5q-0.640625 0 -1.125 0.53125q-0.46875 0.53125 -0.46875 1.359375q0 0.75 0.453125 1.21875q0.453125 0.46875 1.125 0.46875q0.671875 0 1.09375 -0.46875q0.4375 -0.46875 0.4375 -1.296875zm5.934021 5.296875l-0.890625 0l0 -7.875l0.96875 0l0 2.8125q0.609375 -0.765625 1.5625 -0.765625q0.53125 0 1.0 0.21875q0.46875 0.203125 0.765625 0.59375q0.3125 0.375 0.484375 0.921875q0.171875 0.53125 0.171875 1.15625q0 1.46875 -0.734375 2.265625q-0.71875 0.796875 -1.734375 0.796875q-1.015625 0 -1.59375 -0.84375l0 0.71875zm0 -2.890625q0 1.015625 0.28125 1.484375q0.453125 0.734375 1.234375 0.734375q0.625 0 1.078125 -0.546875q0.46875 -0.546875 0.46875 -1.640625q0 -1.109375 -0.4375 -1.640625q-0.4375 -0.53125 -1.078125 -0.53125q-0.625 0 -1.09375 0.546875q-0.453125 0.546875 -0.453125 1.59375zm5.0046387 5.09375l-0.109375 -0.90625q0.3125 0.078125 0.546875 0.078125q0.328125 0 0.515625 -0.109375q0.203125 -0.109375 0.3125 -0.296875q0.09375 -0.140625 0.296875 -0.71875q0.03125 -0.078125 0.09375 -0.234375l-2.171875 -5.71875l1.046875 0l1.1875 3.296875q0.234375 0.640625 0.40625 1.328125q0.171875 -0.671875 0.40625 -1.296875l1.21875 -3.328125l0.96875 0l-2.171875 5.796875q-0.34375 0.9375 -0.546875 1.296875q-0.25 0.484375 -0.59375 0.703125q-0.328125 0.21875 -0.78125 0.21875q-0.28125 0 -0.625 -0.109375zm7.484375 -3.0625l0.125 0.84375q-0.40625 0.09375 -0.71875 0.09375q-0.53125 0 -0.828125 -0.171875q-0.28125 -0.171875 -0.40625 -0.4375q-0.109375 -0.265625 -0.109375 -1.140625l0 -3.28125l-0.71875 0l0 -0.75l0.71875 0l0 -1.40625l0.953125 -0.59375l0 2.0l0.984375 0l0 0.75l-0.984375 0l0 3.34375q0 0.40625 0.046875 0.53125q0.0625 0.109375 0.171875 0.1875q0.125 0.0625 0.328125 0.0625q0.171875 0 0.4375 -0.03125zm4.7418823 -0.984375l1.0 0.125q-0.234375 0.875 -0.875 1.359375q-0.640625 0.484375 -1.625 0.484375q-1.25 0 -1.984375 -0.765625q-0.734375 -0.765625 -0.734375 -2.15625q0 -1.453125 0.734375 -2.234375q0.75 -0.796875 1.921875 -0.796875q1.15625 0 1.875 0.78125q0.71875 0.765625 0.71875 2.1875q0 0.078125 0 0.25l-4.25 0q0.046875 0.9375 0.515625 1.4375q0.484375 0.5 1.203125 0.5q0.53125 0 0.90625 -0.265625q0.375 -0.28125 0.59375 -0.90625zm-3.171875 -1.5625l3.1875 0q-0.0625 -0.71875 -0.359375 -1.078125q-0.46875 -0.546875 -1.203125 -0.546875q-0.671875 0 -1.125 0.453125q-0.453125 0.4375 -0.5 1.171875zm4.8171387 1.703125l0.953125 -0.15625q0.078125 0.578125 0.4375 0.890625q0.375 0.296875 1.03125 0.296875q0.671875 0 0.984375 -0.265625q0.328125 -0.265625 0.328125 -0.640625q0 -0.328125 -0.28125 -0.515625q-0.203125 -0.125 -0.984375 -0.328125q-1.0625 -0.265625 -1.484375 -0.453125q-0.40625 -0.203125 -0.625 -0.546875q-0.203125 -0.34375 -0.203125 -0.765625q0 -0.390625 0.171875 -0.703125q0.171875 -0.328125 0.484375 -0.546875q0.21875 -0.171875 0.609375 -0.28125q0.390625 -0.109375 0.828125 -0.109375q0.671875 0 1.171875 0.1875q0.515625 0.1875 0.75 0.53125q0.25 0.328125 0.34375 0.875l-0.9375 0.125q-0.078125 -0.4375 -0.390625 -0.671875q-0.296875 -0.25 -0.859375 -0.25q-0.671875 0 -0.953125 0.21875q-0.28125 0.21875 -0.28125 0.515625q0 0.1875 0.109375 0.328125q0.125 0.15625 0.375 0.265625q0.140625 0.046875 0.859375 0.25q1.015625 0.265625 1.421875 0.4375q0.40625 0.171875 0.640625 0.515625q0.234375 0.328125 0.234375 0.828125q0 0.484375 -0.28125 0.90625q-0.28125 0.421875 -0.8125 0.65625q-0.53125 0.234375 -1.203125 0.234375q-1.109375 0 -1.703125 -0.453125q-0.578125 -0.46875 -0.734375 -1.375zm7.328125 3.890625l-2.140625 0l0 -0.796875l1.171875 0l0 -8.46875l-1.171875 0l0 -0.796875l2.140625 0l0 10.0625z" fill-rule="nonzero"></path><path fill="#000000" d="m192.3317 112.0972l0.984375 -0.078125q0.0625 0.578125 0.3125 0.96875q0.265625 0.375 0.796875 0.609375q0.53125 0.234375 1.203125 0.234375q0.609375 0 1.0625 -0.171875q0.453125 -0.1875 0.671875 -0.484375q0.234375 -0.3125 0.234375 -0.6875q0 -0.375 -0.21875 -0.640625q-0.21875 -0.28125 -0.71875 -0.46875q-0.3125 -0.125 -1.40625 -0.375q-1.078125 -0.265625 -1.515625 -0.5q-0.5625 -0.296875 -0.84375 -0.734375q-0.265625 -0.4375 -0.265625 -0.984375q0 -0.59375 0.328125 -1.109375q0.34375 -0.515625 0.984375 -0.78125q0.65625 -0.28125 1.453125 -0.28125q0.875 0 1.546875 0.296875q0.671875 0.28125 1.03125 0.828125q0.359375 0.546875 0.390625 1.234375l-1.0 0.078125q-0.078125 -0.75 -0.546875 -1.125q-0.46875 -0.390625 -1.375 -0.390625q-0.9375 0 -1.375 0.359375q-0.4375 0.34375 -0.4375 0.828125q0 0.421875 0.3125 0.703125q0.296875 0.265625 1.5625 0.5625q1.28125 0.28125 1.75 0.5q0.6875 0.3125 1.015625 0.796875q0.328125 0.484375 0.328125 1.125q0 0.625 -0.359375 1.1875q-0.359375 0.546875 -1.046875 0.859375q-0.671875 0.3125 -1.515625 0.3125q-1.0625 0 -1.78125 -0.3125q-0.71875 -0.3125 -1.140625 -0.9375q-0.40625 -0.625 -0.421875 -1.421875zm11.0607605 0.4375l0.9375 0.125q-0.140625 0.984375 -0.796875 1.546875q-0.640625 0.546875 -1.5625 0.546875q-1.171875 0 -1.890625 -0.765625q-0.703125 -0.765625 -0.703125 -2.1875q0 -0.921875 0.296875 -1.609375q0.3125 -0.703125 0.9375 -1.046875q0.625 -0.34375 1.359375 -0.34375q0.921875 0 1.515625 0.46875q0.59375 0.46875 0.765625 1.328125l-0.953125 0.140625q-0.125 -0.5625 -0.46875 -0.84375q-0.34375 -0.296875 -0.828125 -0.296875q-0.71875 0 -1.1875 0.53125q-0.453125 0.515625 -0.453125 1.640625q0 1.15625 0.4375 1.671875q0.4375 0.515625 1.15625 0.515625q0.5625 0 0.9375 -0.34375q0.390625 -0.34375 0.5 -1.078125zm1.59375 2.09375l0 -5.703125l0.859375 0l0 0.859375q0.34375 -0.609375 0.625 -0.796875q0.28125 -0.1875 0.609375 -0.1875q0.5 0 1.0 0.3125l-0.328125 0.890625q-0.359375 -0.203125 -0.71875 -0.203125q-0.3125 0 -0.5625 0.1875q-0.25 0.1875 -0.359375 0.53125q-0.15625 0.515625 -0.15625 1.125l0 2.984375l-0.96875 0zm3.5642395 -6.765625l0 -1.109375l0.96875 0l0 1.109375l-0.96875 0zm0 6.765625l0 -5.703125l0.96875 0l0 5.703125l-0.96875 0zm2.3518524 2.1875l0 -7.890625l0.890625 0l0 0.734375q0.3125 -0.421875 0.703125 -0.640625q0.390625 -0.21875 0.953125 -0.21875q0.71875 0 1.28125 0.375q0.5625 0.375 0.84375 1.0625q0.28125 0.671875 0.28125 1.5q0 0.875 -0.3125 1.578125q-0.3125 0.6875 -0.921875 1.0625q-0.59375 0.375 -1.25 0.375q-0.484375 0 -0.875 -0.203125q-0.375 -0.203125 -0.625 -0.515625l0 2.78125l-0.96875 0zm0.875 -5.0q0 1.09375 0.453125 1.625q0.453125 0.515625 1.078125 0.515625q0.640625 0 1.09375 -0.53125q0.46875 -0.546875 0.46875 -1.703125q0 -1.078125 -0.453125 -1.625q-0.4375 -0.546875 -1.0625 -0.546875q-0.625 0 -1.109375 0.578125q-0.46875 0.578125 -0.46875 1.6875zm7.1764984 1.953125l0.125 0.84375q-0.40625 0.09375 -0.71875 0.09375q-0.53125 0 -0.828125 -0.171875q-0.28125 -0.171875 -0.40625 -0.4375q-0.109375 -0.265625 -0.109375 -1.140625l0 -3.28125l-0.71875 0l0 -0.75l0.71875 0l0 -1.40625l0.953125 -0.59375l0 2.0l0.984375 0l0 0.75l-0.984375 0l0 3.34375q0 0.40625 0.046875 0.53125q0.0625 0.109375 0.171875 0.1875q0.125 0.0625 0.328125 0.0625q0.171875 0 0.4375 -0.03125zm3.0775452 1.0l2.28125 -8.15625l0.78125 0l-2.28125 8.15625l-0.78125 0zm6.265045 -1.84375l0.953125 -0.15625q0.078125 0.578125 0.4375 0.890625q0.375 0.296875 1.03125 0.296875q0.671875 0 0.984375 -0.265625q0.328125 -0.265625 0.328125 -0.640625q0 -0.328125 -0.28125 -0.515625q-0.203125 -0.125 -0.984375 -0.328125q-1.0625 -0.265625 -1.484375 -0.453125q-0.40625 -0.203125 -0.625 -0.546875q-0.203125 -0.34375 -0.203125 -0.765625q0 -0.390625 0.171875 -0.703125q0.171875 -0.328125 0.484375 -0.546875q0.21875 -0.171875 0.609375 -0.28125q0.390625 -0.109375 0.828125 -0.109375q0.671875 0 1.171875 0.1875q0.515625 0.1875 0.75 0.53125q0.25 0.328125 0.34375 0.875l-0.9375 0.125q-0.078125 -0.4375 -0.390625 -0.671875q-0.296875 -0.25 -0.859375 -0.25q-0.671875 0 -0.953125 0.21875q-0.28125 0.21875 -0.28125 0.515625q0 0.1875 0.109375 0.328125q0.125 0.15625 0.375 0.265625q0.140625 0.046875 0.859375 0.25q1.015625 0.265625 1.421875 0.4375q0.40625 0.171875 0.640625 0.515625q0.234375 0.328125 0.234375 0.828125q0 0.484375 -0.28125 0.90625q-0.28125 0.421875 -0.8125 0.65625q-0.53125 0.234375 -1.203125 0.234375q-1.109375 0 -1.703125 -0.453125q-0.578125 -0.46875 -0.734375 -1.375zm9.4375 -0.390625l0.9375 0.125q-0.140625 0.984375 -0.796875 1.546875q-0.640625 0.546875 -1.5625 0.546875q-1.171875 0 -1.890625 -0.765625q-0.703125 -0.765625 -0.703125 -2.1875q0 -0.921875 0.296875 -1.609375q0.3125 -0.703125 0.9375 -1.046875q0.625 -0.34375 1.359375 -0.34375q0.921875 0 1.515625 0.46875q0.59375 0.46875 0.765625 1.328125l-0.953125 0.140625q-0.125 -0.5625 -0.46875 -0.84375q-0.34375 -0.296875 -0.828125 -0.296875q-0.71875 0 -1.1875 0.53125q-0.453125 0.515625 -0.453125 1.640625q0 1.15625 0.4375 1.671875q0.4375 0.515625 1.15625 0.515625q0.5625 0 0.9375 -0.34375q0.390625 -0.34375 0.5 -1.078125zm1.59375 2.09375l0 -5.703125l0.859375 0l0 0.859375q0.34375 -0.609375 0.625 -0.796875q0.28125 -0.1875 0.609375 -0.1875q0.5 0 1.0 0.3125l-0.328125 0.890625q-0.359375 -0.203125 -0.71875 -0.203125q-0.3125 0 -0.5625 0.1875q-0.25 0.1875 -0.359375 0.53125q-0.15625 0.515625 -0.15625 1.125l0 2.984375l-0.96875 0zm3.5642395 -6.765625l0 -1.109375l0.96875 0l0 1.109375l-0.96875 0zm0 6.765625l0 -5.703125l0.96875 0l0 5.703125l-0.96875 0zm2.3518524 2.1875l0 -7.890625l0.890625 0l0 0.734375q0.3125 -0.421875 0.703125 -0.640625q0.390625 -0.21875 0.953125 -0.21875q0.71875 0 1.28125 0.375q0.5625 0.375 0.84375 1.0625q0.28125 0.671875 0.28125 1.5q0 0.875 -0.3125 1.578125q-0.3125 0.6875 -0.921875 1.0625q-0.59375 0.375 -1.25 0.375q-0.484375 0 -0.875 -0.203125q-0.375 -0.203125 -0.625 -0.515625l0 2.78125l-0.96875 0zm0.875 -5.0q0 1.09375 0.453125 1.625q0.453125 0.515625 1.078125 0.515625q0.640625 0 1.09375 -0.53125q0.46875 -0.546875 0.46875 -1.703125q0 -1.078125 -0.453125 -1.625q-0.4375 -0.546875 -1.0625 -0.546875q-0.625 0 -1.109375 0.578125q-0.46875 0.578125 -0.46875 1.6875zm7.1764984 1.953125l0.125 0.84375q-0.40625 0.09375 -0.71875 0.09375q-0.53125 0 -0.828125 -0.171875q-0.28125 -0.171875 -0.40625 -0.4375q-0.109375 -0.265625 -0.109375 -1.140625l0 -3.28125l-0.71875 0l0 -0.75l0.71875 0l0 -1.40625l0.953125 -0.59375l0 2.0l0.984375 0l0 0.75l-0.984375 0l0 3.34375q0 0.40625 0.046875 0.53125q0.0625 0.109375 0.171875 0.1875q0.125 0.0625 0.328125 0.0625q0.171875 0 0.4375 -0.03125zm0.9606476 0.859375l0 -7.875l2.9687347 0q0.796875 0 1.203125 0.078125q0.578125 0.09375 0.96875 0.375q0.390625 0.265625 0.625 0.75q0.25 0.484375 0.25 1.078125q0 1.0 -0.640625 1.703125q-0.640625 0.6875 -2.3125 0.6875l-2.0156097 0l0 3.203125l-1.046875 0zm1.046875 -4.125l2.0312347 0q1.015625 0 1.4375 -0.375q0.421875 -0.375 0.421875 -1.0625q0 -0.5 -0.25 -0.84375q-0.25 -0.359375 -0.65625 -0.46875q-0.265625 -0.0625 -0.96875 -0.0625l-2.0156097 0l0 2.8125zm9.685745 4.125l0 -0.84375q-0.671875 0.96875 -1.8125 0.96875q-0.5 0 -0.953125 -0.1875q-0.4375 -0.203125 -0.65625 -0.484375q-0.203125 -0.296875 -0.28125 -0.71875q-0.0625 -0.28125 -0.0625 -0.90625l0 -3.53125l0.96875 0l0 3.15625q0 0.765625 0.0625 1.03125q0.09375 0.375 0.375 0.59375q0.296875 0.21875 0.734375 0.21875q0.4375 0 0.8125 -0.21875q0.390625 -0.234375 0.546875 -0.609375q0.15625 -0.390625 0.15625 -1.109375l0 -3.0625l0.96875 0l0 5.703125l-0.859375 0zm3.0671387 0l-0.890625 0l0 -7.875l0.96875 0l0 2.8125q0.609375 -0.765625 1.5625 -0.765625q0.53125 0 1.0 0.21875q0.46875 0.203125 0.765625 0.59375q0.3125 0.375 0.484375 0.921875q0.171875 0.53125 0.171875 1.15625q0 1.46875 -0.734375 2.265625q-0.71875 0.796875 -1.734375 0.796875q-1.015625 0 -1.59375 -0.84375l0 0.71875zm0 -2.890625q0 1.015625 0.28125 1.484375q0.453125 0.734375 1.234375 0.734375q0.625 0 1.078125 -0.546875q0.46875 -0.546875 0.46875 -1.640625q0 -1.109375 -0.4375 -1.640625q-0.4375 -0.53125 -1.078125 -0.53125q-0.625 0 -1.09375 0.546875q-0.453125 0.546875 -0.453125 1.59375zm5.129608 2.890625l0 -7.875l1.03125 0l0 3.90625l3.921875 -3.90625l1.40625 0l-3.296875 3.1875l3.4375 4.6875l-1.375 0l-2.796875 -3.984375l-1.296875 1.25l0 2.734375l-1.03125 0zm10.9201355 -1.84375l1.0 0.125q-0.234375 0.875 -0.875 1.359375q-0.640625 0.484375 -1.625 0.484375q-1.25 0 -1.984375 -0.765625q-0.734375 -0.765625 -0.734375 -2.15625q0 -1.453125 0.734375 -2.234375q0.75 -0.796875 1.921875 -0.796875q1.15625 0 1.875 0.78125q0.71875 0.765625 0.71875 2.1875q0 0.078125 0 0.25l-4.25 0q0.046875 0.9375 0.515625 1.4375q0.484375 0.5 1.203125 0.5q0.53125 0 0.90625 -0.265625q0.375 -0.28125 0.59375 -0.90625zm-3.171875 -1.5625l3.1875 0q-0.0625 -0.71875 -0.359375 -1.078125q-0.46875 -0.546875 -1.203125 -0.546875q-0.671875 0 -1.125 0.453125q-0.453125 0.4375 -0.5 1.171875zm5.1608887 5.609375l-0.109375 -0.90625q0.3125 0.078125 0.546875 0.078125q0.328125 0 0.515625 -0.109375q0.203125 -0.109375 0.3125 -0.296875q0.09375 -0.140625 0.296875 -0.71875q0.03125 -0.078125 0.09375 -0.234375l-2.171875 -5.71875l1.046875 0l1.1875 3.296875q0.234375 0.640625 0.40625 1.328125q0.171875 -0.671875 0.40625 -1.296875l1.21875 -3.328125l0.96875 0l-2.171875 5.796875q-0.34375 0.9375 -0.546875 1.296875q-0.25 0.484375 -0.59375 0.703125q-0.328125 0.21875 -0.78125 0.21875q-0.28125 0 -0.625 -0.109375zm8.351257 -0.015625l0 -10.0625l2.125 0l0 0.796875l-1.15625 0l0 8.46875l1.15625 0l0 0.796875l-2.125 0zm2.8200378 -5.625l0 -0.90625l5.203125 -2.203125l0 0.953125l-4.125 1.703125l4.125 1.71875l0 0.953125l-5.203125 -2.21875zm6.1137085 0.90625l0.984375 -0.078125q0.0625 0.578125 0.3125 0.96875q0.265625 0.375 0.796875 0.609375q0.53125 0.234375 1.203125 0.234375q0.609375 0 1.0625 -0.171875q0.453125 -0.1875 0.671875 -0.484375q0.234375 -0.3125 0.234375 -0.6875q0 -0.375 -0.21875 -0.640625q-0.21875 -0.28125 -0.71875 -0.46875q-0.3125 -0.125 -1.40625 -0.375q-1.078125 -0.265625 -1.515625 -0.5q-0.5625 -0.296875 -0.84375 -0.734375q-0.265625 -0.4375 -0.265625 -0.984375q0 -0.59375 0.328125 -1.109375q0.34375 -0.515625 0.984375 -0.78125q0.65625 -0.28125 1.453125 -0.28125q0.875 0 1.546875 0.296875q0.671875 0.28125 1.03125 0.828125q0.359375 0.546875 0.390625 1.234375l-1.0 0.078125q-0.078125 -0.75 -0.546875 -1.125q-0.46875 -0.390625 -1.375 -0.390625q-0.9375 0 -1.375 0.359375q-0.4375 0.34375 -0.4375 0.828125q0 0.421875 0.3125 0.703125q0.296875 0.265625 1.5625 0.5625q1.28125 0.28125 1.75 0.5q0.6875 0.3125 1.015625 0.796875q0.328125 0.484375 0.328125 1.125q0 0.625 -0.359375 1.1875q-0.359375 0.546875 -1.046875 0.859375q-0.671875 0.3125 -1.515625 0.3125q-1.0625 0 -1.78125 -0.3125q-0.71875 -0.3125 -1.140625 -0.9375q-0.40625 -0.625 -0.421875 -1.421875zm11.06073 0.4375l0.9375 0.125q-0.140625 0.984375 -0.796875 1.546875q-0.640625 0.546875 -1.5625 0.546875q-1.171875 0 -1.890625 -0.765625q-0.703125 -0.765625 -0.703125 -2.1875q0 -0.921875 0.296875 -1.609375q0.3125 -0.703125 0.9375 -1.046875q0.625 -0.34375 1.359375 -0.34375q0.921875 0 1.515625 0.46875q0.59375 0.46875 0.765625 1.328125l-0.953125 0.140625q-0.125 -0.5625 -0.46875 -0.84375q-0.34375 -0.296875 -0.828125 -0.296875q-0.71875 0 -1.1875 0.53125q-0.453125 0.515625 -0.453125 1.640625q0 1.15625 0.4375 1.671875q0.4375 0.515625 1.15625 0.515625q0.5625 0 0.9375 -0.34375q0.390625 -0.34375 0.5 -1.078125zm1.59375 2.09375l0 -5.703125l0.859375 0l0 0.859375q0.34375 -0.609375 0.625 -0.796875q0.28125 -0.1875 0.609375 -0.1875q0.5 0 1.0 0.3125l-0.328125 0.890625q-0.359375 -0.203125 -0.71875 -0.203125q-0.3125 0 -0.5625 0.1875q-0.25 0.1875 -0.359375 0.53125q-0.15625 0.515625 -0.15625 1.125l0 2.984375l-0.96875 0zm3.56427 -6.765625l0 -1.109375l0.96875 0l0 1.109375l-0.96875 0zm0 6.765625l0 -5.703125l0.96875 0l0 5.703125l-0.96875 0zm2.3518372 2.1875l0 -7.890625l0.890625 0l0 0.734375q0.3125 -0.421875 0.703125 -0.640625q0.390625 -0.21875 0.953125 -0.21875q0.71875 0 1.28125 0.375q0.5625 0.375 0.84375 1.0625q0.28125 0.671875 0.28125 1.5q0 0.875 -0.3125 1.578125q-0.3125 0.6875 -0.921875 1.0625q-0.59375 0.375 -1.25 0.375q-0.484375 0 -0.875 -0.203125q-0.375 -0.203125 -0.625 -0.515625l0 2.78125l-0.96875 0zm0.875 -5.0q0 1.09375 0.453125 1.625q0.453125 0.515625 1.078125 0.515625q0.640625 0 1.09375 -0.53125q0.46875 -0.546875 0.46875 -1.703125q0 -1.078125 -0.453125 -1.625q-0.4375 -0.546875 -1.0625 -0.546875q-0.625 0 -1.109375 0.578125q-0.46875 0.578125 -0.46875 1.6875zm7.176483 1.953125l0.125 0.84375q-0.40625 0.09375 -0.71875 0.09375q-0.53125 0 -0.828125 -0.171875q-0.28125 -0.171875 -0.40625 -0.4375q-0.109375 -0.265625 -0.109375 -1.140625l0 -3.28125l-0.71875 0l0 -0.75l0.71875 0l0 -1.40625l0.953125 -0.59375l0 2.0l0.984375 0l0 0.75l-0.984375 0l0 3.34375q0 0.40625 0.046875 0.53125q0.0625 0.109375 0.171875 0.1875q0.125 0.0625 0.328125 0.0625q0.171875 0 0.4375 -0.03125zm3.8900757 0.859375l0 -7.875l1.03125 0l0 6.953125l3.875 0l0 0.921875l-4.90625 0zm9.738983 -1.84375l1.0 0.125q-0.234375 0.875 -0.875 1.359375q-0.640625 0.484375 -1.625 0.484375q-1.25 0 -1.984375 -0.765625q-0.734375 -0.765625 -0.734375 -2.15625q0 -1.453125 0.734375 -2.234375q0.75 -0.796875 1.921875 -0.796875q1.15625 0 1.875 0.78125q0.71875 0.765625 0.71875 2.1875q0 0.078125 0 0.25l-4.25 0q0.046875 0.9375 0.515625 1.4375q0.484375 0.5 1.203125 0.5q0.53125 0 0.90625 -0.265625q0.375 -0.28125 0.59375 -0.90625zm-3.171875 -1.5625l3.1875 0q-0.0625 -0.71875 -0.359375 -1.078125q-0.46875 -0.546875 -1.203125 -0.546875q-0.671875 0 -1.125 0.453125q-0.453125 0.4375 -0.5 1.171875zm5.192108 3.40625l0 -5.703125l0.875 0l0 0.8125q0.625 -0.9375 1.8125 -0.9375q0.515625 0 0.953125 0.1875q0.4375 0.171875 0.640625 0.484375q0.21875 0.296875 0.3125 0.703125q0.046875 0.28125 0.046875 0.953125l0 3.5l-0.96875 0l0 -3.46875q0 -0.59375 -0.109375 -0.875q-0.109375 -0.296875 -0.40625 -0.46875q-0.28125 -0.1875 -0.671875 -0.1875q-0.609375 0 -1.0625 0.390625q-0.453125 0.390625 -0.453125 1.5l0 3.109375l-0.96875 0zm5.7546387 0.46875l0.9375 0.140625q0.0625 0.4375 0.328125 0.640625q0.359375 0.265625 0.984375 0.265625q0.671875 0 1.03125 -0.265625q0.375 -0.265625 0.5 -0.75q0.078125 -0.296875 0.078125 -1.25q-0.640625 0.75 -1.59375 0.75q-1.171875 0 -1.8125 -0.84375q-0.640625 -0.859375 -0.640625 -2.046875q0 -0.8125 0.296875 -1.5q0.296875 -0.6875 0.84375 -1.0625q0.5625 -0.375 1.328125 -0.375q1.0 0 1.65625 0.8125l0 -0.6875l0.890625 0l0 4.921875q0 1.34375 -0.265625 1.890625q-0.265625 0.5625 -0.859375 0.875q-0.59375 0.328125 -1.453125 0.328125q-1.015625 0 -1.640625 -0.46875q-0.625 -0.453125 -0.609375 -1.375zm0.796875 -3.421875q0 1.125 0.4375 1.640625q0.453125 0.515625 1.125 0.515625q0.671875 0 1.125 -0.515625q0.453125 -0.515625 0.453125 -1.609375q0 -1.046875 -0.46875 -1.578125q-0.46875 -0.53125 -1.125 -0.53125q-0.640625 0 -1.09375 0.53125q-0.453125 0.515625 -0.453125 1.546875zm7.4265137 2.09375l0.125 0.84375q-0.40625 0.09375 -0.71875 0.09375q-0.53125 0 -0.828125 -0.171875q-0.28125 -0.171875 -0.40625 -0.4375q-0.109375 -0.265625 -0.109375 -1.140625l0 -3.28125l-0.71875 0l0 -0.75l0.71875 0l0 -1.40625l0.953125 -0.59375l0 2.0l0.984375 0l0 0.75l-0.984375 0l0 3.34375q0 0.40625 0.046875 0.53125q0.0625 0.109375 0.171875 0.1875q0.125 0.0625 0.328125 0.0625q0.171875 0 0.4375 -0.03125zm0.8356323 0.859375l0 -7.875l0.96875 0l0 2.828125q0.6875 -0.78125 1.71875 -0.78125q0.625 0 1.09375 0.25q0.46875 0.25 0.671875 0.6875q0.203125 0.4375 0.203125 1.28125l0 3.609375l-0.96875 0l0 -3.609375q0 -0.734375 -0.3125 -1.0625q-0.3125 -0.328125 -0.890625 -0.328125q-0.4375 0 -0.8125 0.21875q-0.375 0.21875 -0.546875 0.609375q-0.15625 0.375 -0.15625 1.046875l0 3.125l-0.96875 0zm11.020264 -3.4375l-5.203125 2.21875l0 -0.953125l4.125 -1.71875l-4.125 -1.703125l0 -0.953125l5.203125 2.203125l0 0.90625zm2.0199585 3.4375l-0.890625 0l0 -7.875l0.96875 0l0 2.8125q0.609375 -0.765625 1.5625 -0.765625q0.53125 0 1.0 0.21875q0.46875 0.203125 0.765625 0.59375q0.3125 0.375 0.484375 0.921875q0.171875 0.53125 0.171875 1.15625q0 1.46875 -0.734375 2.265625q-0.71875 0.796875 -1.734375 0.796875q-1.015625 0 -1.59375 -0.84375l0 0.71875zm0 -2.890625q0 1.015625 0.28125 1.484375q0.453125 0.734375 1.234375 0.734375q0.625 0 1.078125 -0.546875q0.46875 -0.546875 0.46875 -1.640625q0 -1.109375 -0.4375 -1.640625q-0.4375 -0.53125 -1.078125 -0.53125q-0.625 0 -1.09375 0.546875q-0.453125 0.546875 -0.453125 1.59375zm5.004608 5.09375l-0.109375 -0.90625q0.3125 0.078125 0.546875 0.078125q0.328125 0 0.515625 -0.109375q0.203125 -0.109375 0.3125 -0.296875q0.09375 -0.140625 0.296875 -0.71875q0.03125 -0.078125 0.09375 -0.234375l-2.171875 -5.71875l1.046875 0l1.1875 3.296875q0.234375 0.640625 0.40625 1.328125q0.171875 -0.671875 0.40625 -1.296875l1.21875 -3.328125l0.96875 0l-2.171875 5.796875q-0.34375 0.9375 -0.546875 1.296875q-0.25 0.484375 -0.59375 0.703125q-0.328125 0.21875 -0.78125 0.21875q-0.28125 0 -0.625 -0.109375zm7.484375 -3.0625l0.125 0.84375q-0.40625 0.09375 -0.71875 0.09375q-0.53125 0 -0.828125 -0.171875q-0.28125 -0.171875 -0.40625 -0.4375q-0.109375 -0.265625 -0.109375 -1.140625l0 -3.28125l-0.71875 0l0 -0.75l0.71875 0l0 -1.40625l0.953125 -0.59375l0 2.0l0.984375 0l0 0.75l-0.984375 0l0 3.34375q0 0.40625 0.046875 0.53125q0.0625 0.109375 0.171875 0.1875q0.125 0.0625 0.328125 0.0625q0.171875 0 0.4375 -0.03125zm4.741913 -0.984375l1.0 0.125q-0.234375 0.875 -0.875 1.359375q-0.640625 0.484375 -1.625 0.484375q-1.25 0 -1.984375 -0.765625q-0.734375 -0.765625 -0.734375 -2.15625q0 -1.453125 0.734375 -2.234375q0.75 -0.796875 1.921875 -0.796875q1.15625 0 1.875 0.78125q0.71875 0.765625 0.71875 2.1875q0 0.078125 0 0.25l-4.25 0q0.046875 0.9375 0.515625 1.4375q0.484375 0.5 1.203125 0.5q0.53125 0 0.90625 -0.265625q0.375 -0.28125 0.59375 -0.90625zm-3.171875 -1.5625l3.1875 0q-0.0625 -0.71875 -0.359375 -1.078125q-0.46875 -0.546875 -1.203125 -0.546875q-0.671875 0 -1.125 0.453125q-0.453125 0.4375 -0.5 1.171875zm4.817108 1.703125l0.953125 -0.15625q0.078125 0.578125 0.4375 0.890625q0.375 0.296875 1.03125 0.296875q0.671875 0 0.984375 -0.265625q0.328125 -0.265625 0.328125 -0.640625q0 -0.328125 -0.28125 -0.515625q-0.203125 -0.125 -0.984375 -0.328125q-1.0625 -0.265625 -1.484375 -0.453125q-0.40625 -0.203125 -0.625 -0.546875q-0.203125 -0.34375 -0.203125 -0.765625q0 -0.390625 0.171875 -0.703125q0.171875 -0.328125 0.484375 -0.546875q0.21875 -0.171875 0.609375 -0.28125q0.390625 -0.109375 0.828125 -0.109375q0.671875 0 1.171875 0.1875q0.515625 0.1875 0.75 0.53125q0.25 0.328125 0.34375 0.875l-0.9375 0.125q-0.078125 -0.4375 -0.390625 -0.671875q-0.296875 -0.25 -0.859375 -0.25q-0.671875 0 -0.953125 0.21875q-0.28125 0.21875 -0.28125 0.515625q0 0.1875 0.109375 0.328125q0.125 0.15625 0.375 0.265625q0.140625 0.046875 0.859375 0.25q1.015625 0.265625 1.421875 0.4375q0.40625 0.171875 0.640625 0.515625q0.234375 0.328125 0.234375 0.828125q0 0.484375 -0.28125 0.90625q-0.28125 0.421875 -0.8125 0.65625q-0.53125 0.234375 -1.203125 0.234375q-1.109375 0 -1.703125 -0.453125q-0.578125 -0.46875 -0.734375 -1.375zm7.328125 3.890625l-2.140625 0l0 -0.796875l1.171875 0l0 -8.46875l-1.171875 0l0 -0.796875l2.140625 0l0 10.0625z" fill-rule="nonzero"></path></g></svg>

