<?xml version="1.0" standalone="yes"?>

<svg version="1.1" viewBox="0.0 0.0 610.4566929133858 164.9501312335958" fill="none" stroke="none" stroke-linecap="square" stroke-miterlimit="10" xmlns="http://www.w3.org/2000/svg" xmlns:xlink="http://www.w3.org/1999/xlink"><clipPath id="p.0"><path d="m0 0l610.45667 0l0 164.95013l-610.45667 0l0 -164.95013z" clip-rule="nonzero"></path></clipPath><g clip-path="url(#p.0)"><path fill="#000000" fill-opacity="0.0" d="m0 0l610.45667 0l0 164.95013l-610.45667 0z" fill-rule="evenodd"></path><path stroke="#9e9e9e" stroke-width="1.0" stroke-linecap="butt" d="m1.2603754 0.6211129l0 161.98163" fill-rule="nonzero"></path><path stroke="#9e9e9e" stroke-width="1.0" stroke-linecap="butt" d="m304.99527 32.817963l0 129.78477" fill-rule="nonzero"></path><path stroke="#9e9e9e" stroke-width="1.0" stroke-linecap="butt" d="m608.73016 0.6211129l0 161.98163" fill-rule="nonzero"></path><path stroke="#9e9e9e" stroke-width="1.0" stroke-linecap="butt" d="m0.76168764 1.1198006l608.4672 0" fill-rule="nonzero"></path><path stroke="#9e9e9e" stroke-width="1.0" stroke-linecap="butt" d="m0.76168764 33.31665l608.4672 0" fill-rule="nonzero"></path><path stroke="#9e9e9e" stroke-width="1.0" stroke-linecap="butt" d="m0.76168764 65.513504l608.4672 0" fill-rule="nonzero"></path><path stroke="#9e9e9e" stroke-width="1.0" stroke-linecap="butt" d="m0.76168764 97.71035l608.4672 0" fill-rule="nonzero"></path><path stroke="#9e9e9e" stroke-width="1.0" stroke-linecap="butt" d="m0.76168764 129.9072l608.4672 0" fill-rule="nonzero"></path><path stroke="#9e9e9e" stroke-width="1.0" stroke-linecap="butt" d="m0.76168764 162.10405l608.4672 0" fill-rule="nonzero"></path><path fill="#000000" d="m301.5543 20.3598l0 -1.09375l1.09375 0l0 1.09375l-1.09375 0zm2.9606628 0l0 -1.09375l1.09375 0l0 1.09375l-1.09375 0zm2.9606323 0l0 -1.09375l1.09375 0l0 1.09375l-1.09375 0z" fill-rule="nonzero"></path><path fill="#000000" d="m126.72737 52.556652l0 -7.875l1.0625 0l4.140625 6.1875l0 -6.1875l1.0 0l0 7.875l-1.078125 0l-4.125 -6.1875l0 6.1875l-1.0 0zm11.320602 0l0 -0.84375q-0.671875 0.96875 -1.8125 0.96875q-0.5 0 -0.953125 -0.1875q-0.4375 -0.203125 -0.65625 -0.484375q-0.203125 -0.296875 -0.28125 -0.71875q-0.0625 -0.28125 -0.0625 -0.90625l0 -3.53125l0.96875 0l0 3.15625q0 0.765625 0.0625 1.03125q0.09375 0.375 0.375 0.59375q0.296875 0.21875 0.734375 0.21875q0.4375 0 0.8125 -0.21875q0.390625 -0.234375 0.546875 -0.609375q0.15625 -0.390625 0.15625 -1.109375l0 -3.0625l0.96875 0l0 5.703125l-0.859375 0zm2.1764984 0l0 -5.703125l0.875 0l0 0.796875q0.265625 -0.421875 0.703125 -0.671875q0.453125 -0.25 1.015625 -0.25q0.640625 0 1.046875 0.265625q0.40625 0.25 0.578125 0.734375q0.671875 -1.0 1.75 -1.0q0.859375 0 1.3125 0.46875q0.453125 0.46875 0.453125 1.4375l0 3.921875l-0.953125 0l0 -3.59375q0 -0.578125 -0.09375 -0.828125q-0.09375 -0.265625 -0.34375 -0.421875q-0.25 -0.15625 -0.578125 -0.15625q-0.609375 0 -1.015625 0.40625q-0.390625 0.40625 -0.390625 1.28125l0 3.3125l-0.96875 0l0 -3.703125q0 -0.640625 -0.234375 -0.96875q-0.234375 -0.328125 -0.765625 -0.328125q-0.40625 0 -0.765625 0.21875q-0.34375 0.21875 -0.5 0.640625q-0.15625 0.40625 -0.15625 1.1875l0 2.953125l-0.96875 0zm12.149887 0l0 -7.875l1.03125 0l0 7.875l-1.03125 0zm2.6481476 0l0 -5.703125l0.875 0l0 0.8125q0.625 -0.9375 1.8125 -0.9375q0.515625 0 0.953125 0.1875q0.4375 0.171875 0.640625 0.484375q0.21875 0.296875 0.3125 0.703125q0.046875 0.28125 0.046875 0.953125l0 3.5l-0.96875 0l0 -3.46875q0 -0.59375 -0.109375 -0.875q-0.109375 -0.296875 -0.40625 -0.46875q-0.28125 -0.1875 -0.671875 -0.1875q-0.609375 0 -1.0625 0.390625q-0.453125 0.390625 -0.453125 1.5l0 3.109375l-0.96875 0zm5.9264984 2.1875l0 -7.890625l0.890625 0l0 0.734375q0.3125 -0.421875 0.703125 -0.640625q0.390625 -0.21875 0.953125 -0.21875q0.71875 0 1.28125 0.375q0.5625 0.375 0.84375 1.0625q0.28125 0.671875 0.28125 1.5q0 0.875 -0.3125 1.578125q-0.3125 0.6875 -0.921875 1.0625q-0.59375 0.375 -1.25 0.375q-0.484375 0 -0.875 -0.203125q-0.375 -0.203125 -0.625 -0.515625l0 2.78125l-0.96875 0zm0.875 -5.0q0 1.09375 0.453125 1.625q0.453125 0.515625 1.078125 0.515625q0.640625 0 1.09375 -0.53125q0.46875 -0.546875 0.46875 -1.703125q0 -1.078125 -0.453125 -1.625q-0.4375 -0.546875 -1.0625 -0.546875q-0.625 0 -1.109375 0.578125q-0.46875 0.578125 -0.46875 1.6875zm8.801498 2.8125l0 -0.84375q-0.671875 0.96875 -1.8125 0.96875q-0.5 0 -0.953125 -0.1875q-0.4375 -0.203125 -0.65625 -0.484375q-0.203125 -0.296875 -0.28125 -0.71875q-0.0625 -0.28125 -0.0625 -0.90625l0 -3.53125l0.96875 0l0 3.15625q0 0.765625 0.0625 1.03125q0.09375 0.375 0.375 0.59375q0.296875 0.21875 0.734375 0.21875q0.4375 0 0.8125 -0.21875q0.390625 -0.234375 0.546875 -0.609375q0.15625 -0.390625 0.15625 -1.109375l0 -3.0625l0.96875 0l0 5.703125l-0.859375 0zm4.3014984 -0.859375l0.125 0.84375q-0.40625 0.09375 -0.71875 0.09375q-0.53125 0 -0.828125 -0.171875q-0.28125 -0.171875 -0.40625 -0.4375q-0.109375 -0.265625 -0.109375 -1.140625l0 -3.28125l-0.71875 0l0 -0.75l0.71875 0l0 -1.40625l0.953125 -0.59375l0 2.0l0.984375 0l0 0.75l-0.984375 0l0 3.34375q0 0.40625 0.046875 0.53125q0.0625 0.109375 0.171875 0.1875q0.125 0.0625 0.328125 0.0625q0.171875 0 0.4375 -0.03125zm0.46064758 -0.84375l0.953125 -0.15625q0.078125 0.578125 0.4375 0.890625q0.375 0.296875 1.03125 0.296875q0.671875 0 0.984375 -0.265625q0.328125 -0.265625 0.328125 -0.640625q0 -0.328125 -0.28125 -0.515625q-0.203125 -0.125 -0.984375 -0.328125q-1.0625 -0.265625 -1.484375 -0.453125q-0.40625 -0.203125 -0.625 -0.546875q-0.203125 -0.34375 -0.203125 -0.765625q0 -0.390625 0.171875 -0.703125q0.171875 -0.328125 0.484375 -0.546875q0.21875 -0.171875 0.609375 -0.28125q0.390625 -0.109375 0.828125 -0.109375q0.671875 0 1.171875 0.1875q0.515625 0.1875 0.75 0.53125q0.25 0.328125 0.34375 0.875l-0.9375 0.125q-0.078125 -0.4375 -0.390625 -0.671875q-0.296875 -0.25 -0.859375 -0.25q-0.671875 0 -0.953125 0.21875q-0.28125 0.21875 -0.28125 0.515625q0 0.1875 0.109375 0.328125q0.125 0.15625 0.375 0.265625q0.140625 0.046875 0.859375 0.25q1.015625 0.265625 1.421875 0.4375q0.40625 0.171875 0.640625 0.515625q0.234375 0.328125 0.234375 0.828125q0 0.484375 -0.28125 0.90625q-0.28125 0.421875 -0.8125 0.65625q-0.53125 0.234375 -1.203125 0.234375q-1.109375 0 -1.703125 -0.453125q-0.578125 -0.46875 -0.734375 -1.375z" fill-rule="nonzero"></path><path fill="#000000" d="m426.3179 52.556652l0 -7.875l1.0625 0l4.140625 6.1875l0 -6.1875l1.0 0l0 7.875l-1.078125 0l-4.125 -6.1875l0 6.1875l-1.0 0zm11.320587 0l0 -0.84375q-0.671875 0.96875 -1.8125 0.96875q-0.5 0 -0.953125 -0.1875q-0.4375 -0.203125 -0.65625 -0.484375q-0.203125 -0.296875 -0.28125 -0.71875q-0.0625 -0.28125 -0.0625 -0.90625l0 -3.53125l0.96875 0l0 3.15625q0 0.765625 0.0625 1.03125q0.09375 0.375 0.375 0.59375q0.296875 0.21875 0.734375 0.21875q0.4375 0 0.8125 -0.21875q0.390625 -0.234375 0.546875 -0.609375q0.15625 -0.390625 0.15625 -1.109375l0 -3.0625l0.96875 0l0 5.703125l-0.859375 0zm2.1764832 0l0 -5.703125l0.875 0l0 0.796875q0.265625 -0.421875 0.703125 -0.671875q0.453125 -0.25 1.015625 -0.25q0.640625 0 1.046875 0.265625q0.40625 0.25 0.578125 0.734375q0.671875 -1.0 1.75 -1.0q0.859375 0 1.3125 0.46875q0.453125 0.46875 0.453125 1.4375l0 3.921875l-0.953125 0l0 -3.59375q0 -0.578125 -0.09375 -0.828125q-0.09375 -0.265625 -0.34375 -0.421875q-0.25 -0.15625 -0.578125 -0.15625q-0.609375 0 -1.015625 0.40625q-0.390625 0.40625 -0.390625 1.28125l0 3.3125l-0.96875 0l0 -3.703125q0 -0.640625 -0.234375 -0.96875q-0.234375 -0.328125 -0.765625 -0.328125q-0.40625 0 -0.765625 0.21875q-0.34375 0.21875 -0.5 0.640625q-0.15625 0.40625 -0.15625 1.1875l0 2.953125l-0.96875 0zm11.649902 -3.828125q0 -1.96875 1.046875 -3.078125q1.0625 -1.109375 2.71875 -1.109375q1.09375 0 1.96875 0.53125q0.875 0.515625 1.328125 1.453125q0.46875 0.921875 0.46875 2.109375q0 1.1875 -0.484375 2.140625q-0.484375 0.9375 -1.375 1.4375q-0.875 0.484375 -1.90625 0.484375q-1.109375 0 -1.984375 -0.53125q-0.875 -0.546875 -1.328125 -1.46875q-0.453125 -0.9375 -0.453125 -1.96875zm1.078125 0.015625q0 1.421875 0.765625 2.25q0.765625 0.8125 1.921875 0.8125q1.171875 0 1.921875 -0.828125q0.765625 -0.828125 0.765625 -2.359375q0 -0.953125 -0.328125 -1.671875q-0.3125 -0.71875 -0.9375 -1.109375q-0.625 -0.390625 -1.40625 -0.390625q-1.109375 0 -1.90625 0.765625q-0.796875 0.75 -0.796875 2.53125zm11.148132 3.8125l0 -0.84375q-0.671875 0.96875 -1.8125 0.96875q-0.5 0 -0.953125 -0.1875q-0.4375 -0.203125 -0.65625 -0.484375q-0.203125 -0.296875 -0.28125 -0.71875q-0.0625 -0.28125 -0.0625 -0.90625l0 -3.53125l0.96875 0l0 3.15625q0 0.765625 0.0625 1.03125q0.09375 0.375 0.375 0.59375q0.296875 0.21875 0.734375 0.21875q0.4375 0 0.8125 -0.21875q0.390625 -0.234375 0.546875 -0.609375q0.15625 -0.390625 0.15625 -1.109375l0 -3.0625l0.96875 0l0 5.703125l-0.859375 0zm4.3015137 -0.859375l0.125 0.84375q-0.40625 0.09375 -0.71875 0.09375q-0.53125 0 -0.828125 -0.171875q-0.28125 -0.171875 -0.40625 -0.4375q-0.109375 -0.265625 -0.109375 -1.140625l0 -3.28125l-0.71875 0l0 -0.75l0.71875 0l0 -1.40625l0.953125 -0.59375l0 2.0l0.984375 0l0 0.75l-0.984375 0l0 3.34375q0 0.40625 0.046875 0.53125q0.0625 0.109375 0.171875 0.1875q0.125 0.0625 0.328125 0.0625q0.171875 0 0.4375 -0.03125zm0.8356323 3.046875l0 -7.890625l0.890625 0l0 0.734375q0.3125 -0.421875 0.703125 -0.640625q0.390625 -0.21875 0.953125 -0.21875q0.71875 0 1.28125 0.375q0.5625 0.375 0.84375 1.0625q0.28125 0.671875 0.28125 1.5q0 0.875 -0.3125 1.578125q-0.3125 0.6875 -0.921875 1.0625q-0.59375 0.375 -1.25 0.375q-0.484375 0 -0.875 -0.203125q-0.375 -0.203125 -0.625 -0.515625l0 2.78125l-0.96875 0zm0.875 -5.0q0 1.09375 0.453125 1.625q0.453125 0.515625 1.078125 0.515625q0.640625 0 1.09375 -0.53125q0.46875 -0.546875 0.46875 -1.703125q0 -1.078125 -0.453125 -1.625q-0.4375 -0.546875 -1.0625 -0.546875q-0.625 0 -1.109375 0.578125q-0.46875 0.578125 -0.46875 1.6875zm8.801514 2.8125l0 -0.84375q-0.671875 0.96875 -1.8125 0.96875q-0.5 0 -0.953125 -0.1875q-0.4375 -0.203125 -0.65625 -0.484375q-0.203125 -0.296875 -0.28125 -0.71875q-0.0625 -0.28125 -0.0625 -0.90625l0 -3.53125l0.96875 0l0 3.15625q0 0.765625 0.0625 1.03125q0.09375 0.375 0.375 0.59375q0.296875 0.21875 0.734375 0.21875q0.4375 0 0.8125 -0.21875q0.390625 -0.234375 0.546875 -0.609375q0.15625 -0.390625 0.15625 -1.109375l0 -3.0625l0.96875 0l0 5.703125l-0.859375 0zm4.301483 -0.859375l0.125 0.84375q-0.40625 0.09375 -0.71875 0.09375q-0.53125 0 -0.828125 -0.171875q-0.28125 -0.171875 -0.40625 -0.4375q-0.109375 -0.265625 -0.109375 -1.140625l0 -3.28125l-0.71875 0l0 -0.75l0.71875 0l0 -1.40625l0.953125 -0.59375l0 2.0l0.984375 0l0 0.75l-0.984375 0l0 3.34375q0 0.40625 0.046875 0.53125q0.0625 0.109375 0.171875 0.1875q0.125 0.0625 0.328125 0.0625q0.171875 0 0.4375 -0.03125zm0.46066284 -0.84375l0.953125 -0.15625q0.078125 0.578125 0.4375 0.890625q0.375 0.296875 1.03125 0.296875q0.671875 0 0.984375 -0.265625q0.328125 -0.265625 0.328125 -0.640625q0 -0.328125 -0.28125 -0.515625q-0.203125 -0.125 -0.984375 -0.328125q-1.0625 -0.265625 -1.484375 -0.453125q-0.40625 -0.203125 -0.625 -0.546875q-0.203125 -0.34375 -0.203125 -0.765625q0 -0.390625 0.171875 -0.703125q0.171875 -0.328125 0.484375 -0.546875q0.21875 -0.171875 0.609375 -0.28125q0.390625 -0.109375 0.828125 -0.109375q0.671875 0 1.171875 0.1875q0.515625 0.1875 0.75 0.53125q0.25 0.328125 0.34375 0.875l-0.9375 0.125q-0.078125 -0.4375 -0.390625 -0.671875q-0.296875 -0.25 -0.859375 -0.25q-0.671875 0 -0.953125 0.21875q-0.28125 0.21875 -0.28125 0.515625q0 0.1875 0.109375 0.328125q0.125 0.15625 0.375 0.265625q0.140625 0.046875 0.859375 0.25q1.015625 0.265625 1.421875 0.4375q0.40625 0.171875 0.640625 0.515625q0.234375 0.328125 0.234375 0.828125q0 0.484375 -0.28125 0.90625q-0.28125 0.421875 -0.8125 0.65625q-0.53125 0.234375 -1.203125 0.234375q-1.109375 0 -1.703125 -0.453125q-0.578125 -0.46875 -0.734375 -1.375z" fill-rule="nonzero"></path><path fill="#000000" d="m140.33176 85.35193l0 -7.875l1.03125 0l0 7.875l-1.03125 0zm2.6481476 0l0 -5.703125l0.875 0l0 0.8125q0.625 -0.9375 1.8125 -0.9375q0.515625 0 0.953125 0.1875q0.4375 0.171875 0.640625 0.484375q0.21875 0.296875 0.3125 0.703125q0.046875 0.28125 0.046875 0.953125l0 3.5l-0.96875 0l0 -3.46875q0 -0.59375 -0.109375 -0.875q-0.109375 -0.296875 -0.40625 -0.46875q-0.28125 -0.1875 -0.671875 -0.1875q-0.609375 0 -1.0625 0.390625q-0.453125 0.390625 -0.453125 1.5l0 3.109375l-0.96875 0zm5.9264984 2.1875l0 -7.890625l0.890625 0l0 0.734375q0.3125 -0.421875 0.703125 -0.640625q0.390625 -0.21875 0.953125 -0.21875q0.71875 0 1.28125 0.375q0.5625 0.375 0.84375 1.0625q0.28125 0.671875 0.28125 1.5q0 0.875 -0.3125 1.578125q-0.3125 0.6875 -0.921875 1.0625q-0.59375 0.375 -1.25 0.375q-0.484375 0 -0.875 -0.203125q-0.375 -0.203125 -0.625 -0.515625l0 2.78125l-0.96875 0zm0.875 -5.0q0 1.09375 0.453125 1.625q0.453125 0.515625 1.078125 0.515625q0.640625 0 1.09375 -0.53125q0.46875 -0.546875 0.46875 -1.703125q0 -1.078125 -0.453125 -1.625q-0.4375 -0.546875 -1.0625 -0.546875q-0.625 0 -1.109375 0.578125q-0.46875 0.578125 -0.46875 1.6875zm8.801498 2.8125l0 -0.84375q-0.671875 0.96875 -1.8125 0.96875q-0.5 0 -0.953125 -0.1875q-0.4375 -0.203125 -0.65625 -0.484375q-0.203125 -0.296875 -0.28125 -0.71875q-0.0625 -0.28125 -0.0625 -0.90625l0 -3.53125l0.96875 0l0 3.15625q0 0.765625 0.0625 1.03125q0.09375 0.375 0.375 0.59375q0.296875 0.21875 0.734375 0.21875q0.4375 0 0.8125 -0.21875q0.390625 -0.234375 0.546875 -0.609375q0.15625 -0.390625 0.15625 -1.109375l0 -3.0625l0.96875 0l0 5.703125l-0.859375 0zm4.3014984 -0.859375l0.125 0.84375q-0.40625 0.09375 -0.71875 0.09375q-0.53125 0 -0.828125 -0.171875q-0.28125 -0.171875 -0.40625 -0.4375q-0.109375 -0.265625 -0.109375 -1.140625l0 -3.28125l-0.71875 0l0 -0.75l0.71875 0l0 -1.40625l0.953125 -0.59375l0 2.0l0.984375 0l0 0.75l-0.984375 0l0 3.34375q0 0.40625 0.046875 0.53125q0.0625 0.109375 0.171875 0.1875q0.125 0.0625 0.328125 0.0625q0.171875 0 0.4375 -0.03125z" fill-rule="nonzero"></path><path fill="#000000" d="m163.29817 86.88318q0 -0.890625 0.171875 -1.421875q0.1875 -0.546875 0.546875 -0.84375q0.359375 -0.296875 0.90625 -0.296875q0.40625 0 0.703125 0.171875q0.3125 0.15625 0.5 0.46875q0.203125 0.296875 0.3125 0.734375q0.125 0.4375 0.125 1.1875q0 0.875 -0.1875 1.421875q-0.171875 0.546875 -0.546875 0.84375q-0.359375 0.28125 -0.90625 0.28125q-0.71875 0 -1.140625 -0.515625q-0.484375 -0.625 -0.484375 -2.03125zm0.625 0q0 1.234375 0.28125 1.640625q0.296875 0.40625 0.71875 0.40625q0.421875 0 0.703125 -0.40625q0.296875 -0.40625 0.296875 -1.640625q0 -1.234375 -0.296875 -1.640625q-0.28125 -0.40625 -0.703125 -0.40625q-0.421875 0 -0.6875 0.359375q-0.3125 0.453125 -0.3125 1.6875z" fill-rule="nonzero"></path><path fill="#000000" d="m439.42227 81.5238q0 -1.96875 1.046875 -3.078125q1.0625 -1.109375 2.71875 -1.109375q1.09375 0 1.96875 0.53125q0.875 0.515625 1.328125 1.453125q0.46875 0.921875 0.46875 2.109375q0 1.1875 -0.484375 2.140625q-0.484375 0.9375 -1.375 1.4375q-0.875 0.484375 -1.90625 0.484375q-1.109375 0 -1.984375 -0.53125q-0.875 -0.546875 -1.328125 -1.46875q-0.453125 -0.9375 -0.453125 -1.96875zm1.078125 0.015625q0 1.421875 0.765625 2.25q0.765625 0.8125 1.921875 0.8125q1.171875 0 1.921875 -0.828125q0.765625 -0.828125 0.765625 -2.359375q0 -0.953125 -0.328125 -1.671875q-0.3125 -0.71875 -0.9375 -1.109375q-0.625 -0.390625 -1.40625 -0.390625q-1.109375 0 -1.90625 0.765625q-0.796875 0.75 -0.796875 2.53125zm11.148163 3.8125l0 -0.84375q-0.671875 0.96875 -1.8125 0.96875q-0.5 0 -0.953125 -0.1875q-0.4375 -0.203125 -0.65625 -0.484375q-0.203125 -0.296875 -0.28125 -0.71875q-0.0625 -0.28125 -0.0625 -0.90625l0 -3.53125l0.96875 0l0 3.15625q0 0.765625 0.0625 1.03125q0.09375 0.375 0.375 0.59375q0.296875 0.21875 0.734375 0.21875q0.4375 0 0.8125 -0.21875q0.390625 -0.234375 0.546875 -0.609375q0.15625 -0.390625 0.15625 -1.109375l0 -3.0625l0.96875 0l0 5.703125l-0.859375 0zm4.301483 -0.859375l0.125 0.84375q-0.40625 0.09375 -0.71875 0.09375q-0.53125 0 -0.828125 -0.171875q-0.28125 -0.171875 -0.40625 -0.4375q-0.109375 -0.265625 -0.109375 -1.140625l0 -3.28125l-0.71875 0l0 -0.75l0.71875 0l0 -1.40625l0.953125 -0.59375l0 2.0l0.984375 0l0 0.75l-0.984375 0l0 3.34375q0 0.40625 0.046875 0.53125q0.0625 0.109375 0.171875 0.1875q0.125 0.0625 0.328125 0.0625q0.171875 0 0.4375 -0.03125zm0.83566284 3.046875l0 -7.890625l0.890625 0l0 0.734375q0.3125 -0.421875 0.703125 -0.640625q0.390625 -0.21875 0.953125 -0.21875q0.71875 0 1.28125 0.375q0.5625 0.375 0.84375 1.0625q0.28125 0.671875 0.28125 1.5q0 0.875 -0.3125 1.578125q-0.3125 0.6875 -0.921875 1.0625q-0.59375 0.375 -1.25 0.375q-0.484375 0 -0.875 -0.203125q-0.375 -0.203125 -0.625 -0.515625l0 2.78125l-0.96875 0zm0.875 -5.0q0 1.09375 0.453125 1.625q0.453125 0.515625 1.078125 0.515625q0.640625 0 1.09375 -0.53125q0.46875 -0.546875 0.46875 -1.703125q0 -1.078125 -0.453125 -1.625q-0.4375 -0.546875 -1.0625 -0.546875q-0.625 0 -1.109375 0.578125q-0.46875 0.578125 -0.46875 1.6875zm8.801483 2.8125l0 -0.84375q-0.671875 0.96875 -1.8125 0.96875q-0.5 0 -0.953125 -0.1875q-0.4375 -0.203125 -0.65625 -0.484375q-0.203125 -0.296875 -0.28125 -0.71875q-0.0625 -0.28125 -0.0625 -0.90625l0 -3.53125l0.96875 0l0 3.15625q0 0.765625 0.0625 1.03125q0.09375 0.375 0.375 0.59375q0.296875 0.21875 0.734375 0.21875q0.4375 0 0.8125 -0.21875q0.390625 -0.234375 0.546875 -0.609375q0.15625 -0.390625 0.15625 -1.109375l0 -3.0625l0.96875 0l0 5.703125l-0.859375 0zm4.3015137 -0.859375l0.125 0.84375q-0.40625 0.09375 -0.71875 0.09375q-0.53125 0 -0.828125 -0.171875q-0.28125 -0.171875 -0.40625 -0.4375q-0.109375 -0.265625 -0.109375 -1.140625l0 -3.28125l-0.71875 0l0 -0.75l0.71875 0l0 -1.40625l0.953125 -0.59375l0 2.0l0.984375 0l0 0.75l-0.984375 0l0 3.34375q0 0.40625 0.046875 0.53125q0.0625 0.109375 0.171875 0.1875q0.125 0.0625 0.328125 0.0625q0.171875 0 0.4375 -0.03125z" fill-rule="nonzero"></path><path fill="#000000" d="m471.17746 86.88318q0 -0.890625 0.171875 -1.421875q0.1875 -0.546875 0.546875 -0.84375q0.359375 -0.296875 0.90625 -0.296875q0.40625 0 0.703125 0.171875q0.3125 0.15625 0.5 0.46875q0.203125 0.296875 0.3125 0.734375q0.125 0.4375 0.125 1.1875q0 0.875 -0.1875 1.421875q-0.171875 0.546875 -0.546875 0.84375q-0.359375 0.28125 -0.90625 0.28125q-0.71875 0 -1.140625 -0.515625q-0.484375 -0.625 -0.484375 -2.03125zm0.625 0q0 1.234375 0.28125 1.640625q0.296875 0.40625 0.71875 0.40625q0.421875 0 0.703125 -0.40625q0.296875 -0.40625 0.296875 -1.640625q0 -1.234375 -0.296875 -1.640625q-0.28125 -0.40625 -0.703125 -0.40625q-0.421875 0 -0.6875 0.359375q-0.3125 0.453125 -0.3125 1.6875z" fill-rule="nonzero"></path><path fill="#000000" d="m139.34589 117.548775l0 -7.875l1.03125 0l0 7.875l-1.03125 0zm2.6481476 0l0 -5.703125l0.875 0l0 0.8125q0.625 -0.9375 1.8125 -0.9375q0.515625 0 0.953125 0.1875q0.4375 0.171875 0.640625 0.484375q0.21875 0.296875 0.3125 0.703125q0.046875 0.28125 0.046875 0.953125l0 3.5l-0.96875 0l0 -3.46875q0 -0.59375 -0.109375 -0.875q-0.109375 -0.296875 -0.40625 -0.46875q-0.28125 -0.1875 -0.671875 -0.1875q-0.609375 0 -1.0625 0.390625q-0.453125 0.390625 -0.453125 1.5l0 3.109375l-0.96875 0zm5.9264984 2.1875l0 -7.890625l0.890625 0l0 0.734375q0.3125 -0.421875 0.703125 -0.640625q0.390625 -0.21875 0.953125 -0.21875q0.71875 0 1.28125 0.375q0.5625 0.375 0.84375 1.0625q0.28125 0.671875 0.28125 1.5q0 0.875 -0.3125 1.578125q-0.3125 0.6875 -0.921875 1.0625q-0.59375 0.375 -1.25 0.375q-0.484375 0 -0.875 -0.203125q-0.375 -0.203125 -0.625 -0.515625l0 2.78125l-0.96875 0zm0.875 -5.0q0 1.09375 0.453125 1.625q0.453125 0.515625 1.078125 0.515625q0.640625 0 1.09375 -0.53125q0.46875 -0.546875 0.46875 -1.703125q0 -1.078125 -0.453125 -1.625q-0.4375 -0.546875 -1.0625 -0.546875q-0.625 0 -1.109375 0.578125q-0.46875 0.578125 -0.46875 1.6875zm8.801498 2.8125l0 -0.84375q-0.671875 0.96875 -1.8125 0.96875q-0.5 0 -0.953125 -0.1875q-0.4375 -0.203125 -0.65625 -0.484375q-0.203125 -0.296875 -0.28125 -0.71875q-0.0625 -0.28125 -0.0625 -0.90625l0 -3.53125l0.96875 0l0 3.15625q0 0.765625 0.0625 1.03125q0.09375 0.375 0.375 0.59375q0.296875 0.21875 0.734375 0.21875q0.4375 0 0.8125 -0.21875q0.390625 -0.234375 0.546875 -0.609375q0.15625 -0.390625 0.15625 -1.109375l0 -3.0625l0.96875 0l0 5.703125l-0.859375 0zm4.3014984 -0.859375l0.125 0.84375q-0.40625 0.09375 -0.71875 0.09375q-0.53125 0 -0.828125 -0.171875q-0.28125 -0.171875 -0.40625 -0.4375q-0.109375 -0.265625 -0.109375 -1.140625l0 -3.28125l-0.71875 0l0 -0.75l0.71875 0l0 -1.40625l0.953125 -0.59375l0 2.0l0.984375 0l0 0.75l-0.984375 0l0 3.34375q0 0.40625 0.046875 0.53125q0.0625 0.109375 0.171875 0.1875q0.125 0.0625 0.328125 0.0625q0.171875 0 0.4375 -0.03125z" fill-rule="nonzero"></path><path fill="#000000" d="m162.65605 121.548775l0 -0.703125l0.703125 0l0 0.703125l-0.703125 0zm1.9751892 0l0 -0.703125l0.703125 0l0 0.703125l-0.703125 0zm1.9751892 0l0 -0.703125l0.703125 0l0 0.703125l-0.703125 0z" fill-rule="nonzero"></path><path fill="#000000" d="m438.4364 113.72065q0 -1.96875 1.046875 -3.078125q1.0625 -1.109375 2.71875 -1.109375q1.09375 0 1.96875 0.53125q0.875 0.515625 1.328125 1.453125q0.46875 0.921875 0.46875 2.109375q0 1.1875 -0.484375 2.140625q-0.484375 0.9375 -1.375 1.4375q-0.875 0.484375 -1.90625 0.484375q-1.109375 0 -1.984375 -0.53125q-0.875 -0.546875 -1.328125 -1.46875q-0.453125 -0.9375 -0.453125 -1.96875zm1.078125 0.015625q0 1.421875 0.765625 2.25q0.765625 0.8125 1.921875 0.8125q1.171875 0 1.921875 -0.828125q0.765625 -0.828125 0.765625 -2.359375q0 -0.953125 -0.328125 -1.671875q-0.3125 -0.71875 -0.9375 -1.109375q-0.625 -0.390625 -1.40625 -0.390625q-1.109375 0 -1.90625 0.765625q-0.796875 0.75 -0.796875 2.53125zm11.148163 3.8125l0 -0.84375q-0.671875 0.96875 -1.8125 0.96875q-0.5 0 -0.953125 -0.1875q-0.4375 -0.203125 -0.65625 -0.484375q-0.203125 -0.296875 -0.28125 -0.71875q-0.0625 -0.28125 -0.0625 -0.90625l0 -3.53125l0.96875 0l0 3.15625q0 0.765625 0.0625 1.03125q0.09375 0.375 0.375 0.59375q0.296875 0.21875 0.734375 0.21875q0.4375 0 0.8125 -0.21875q0.390625 -0.234375 0.546875 -0.609375q0.15625 -0.390625 0.15625 -1.109375l0 -3.0625l0.96875 0l0 5.703125l-0.859375 0zm4.301483 -0.859375l0.125 0.84375q-0.40625 0.09375 -0.71875 0.09375q-0.53125 0 -0.828125 -0.171875q-0.28125 -0.171875 -0.40625 -0.4375q-0.109375 -0.265625 -0.109375 -1.140625l0 -3.28125l-0.71875 0l0 -0.75l0.71875 0l0 -1.40625l0.953125 -0.59375l0 2.0l0.984375 0l0 0.75l-0.984375 0l0 3.34375q0 0.40625 0.046875 0.53125q0.0625 0.109375 0.171875 0.1875q0.125 0.0625 0.328125 0.0625q0.171875 0 0.4375 -0.03125zm0.83566284 3.046875l0 -7.890625l0.890625 0l0 0.734375q0.3125 -0.421875 0.703125 -0.640625q0.390625 -0.21875 0.953125 -0.21875q0.71875 0 1.28125 0.375q0.5625 0.375 0.84375 1.0625q0.28125 0.671875 0.28125 1.5q0 0.875 -0.3125 1.578125q-0.3125 0.6875 -0.921875 1.0625q-0.59375 0.375 -1.25 0.375q-0.484375 0 -0.875 -0.203125q-0.375 -0.203125 -0.625 -0.515625l0 2.78125l-0.96875 0zm0.875 -5.0q0 1.09375 0.453125 1.625q0.453125 0.515625 1.078125 0.515625q0.640625 0 1.09375 -0.53125q0.46875 -0.546875 0.46875 -1.703125q0 -1.078125 -0.453125 -1.625q-0.4375 -0.546875 -1.0625 -0.546875q-0.625 0 -1.109375 0.578125q-0.46875 0.578125 -0.46875 1.6875zm8.801483 2.8125l0 -0.84375q-0.671875 0.96875 -1.8125 0.96875q-0.5 0 -0.953125 -0.1875q-0.4375 -0.203125 -0.65625 -0.484375q-0.203125 -0.296875 -0.28125 -0.71875q-0.0625 -0.28125 -0.0625 -0.90625l0 -3.53125l0.96875 0l0 3.15625q0 0.765625 0.0625 1.03125q0.09375 0.375 0.375 0.59375q0.296875 0.21875 0.734375 0.21875q0.4375 0 0.8125 -0.21875q0.390625 -0.234375 0.546875 -0.609375q0.15625 -0.390625 0.15625 -1.109375l0 -3.0625l0.96875 0l0 5.703125l-0.859375 0zm4.3015137 -0.859375l0.125 0.84375q-0.40625 0.09375 -0.71875 0.09375q-0.53125 0 -0.828125 -0.171875q-0.28125 -0.171875 -0.40625 -0.4375q-0.109375 -0.265625 -0.109375 -1.140625l0 -3.28125l-0.71875 0l0 -0.75l0.71875 0l0 -1.40625l0.953125 -0.59375l0 2.0l0.984375 0l0 0.75l-0.984375 0l0 3.34375q0 0.40625 0.046875 0.53125q0.0625 0.109375 0.171875 0.1875q0.125 0.0625 0.328125 0.0625q0.171875 0 0.4375 -0.03125z" fill-rule="nonzero"></path><path fill="#000000" d="m470.53534 121.548775l0 -0.703125l0.703125 0l0 0.703125l-0.703125 0zm1.9751892 0l0 -0.703125l0.703125 0l0 0.703125l-0.703125 0zm1.9751892 0l0 -0.703125l0.703125 0l0 0.703125l-0.703125 0z" fill-rule="nonzero"></path><path fill="#000000" d="m137.17111 149.74562l0 -7.875l1.03125 0l0 7.875l-1.03125 0zm2.6481476 0l0 -5.703125l0.875 0l0 0.8125q0.625 -0.9375 1.8125 -0.9375q0.515625 0 0.953125 0.1875q0.4375 0.171875 0.640625 0.484375q0.21875 0.296875 0.3125 0.703125q0.046875 0.28125 0.046875 0.953125l0 3.5l-0.96875 0l0 -3.46875q0 -0.59375 -0.109375 -0.875q-0.109375 -0.296875 -0.40625 -0.46875q-0.28125 -0.1875 -0.671875 -0.1875q-0.609375 0 -1.0625 0.390625q-0.453125 0.390625 -0.453125 1.5l0 3.109375l-0.96875 0zm5.9264984 2.1875l0 -7.890625l0.890625 0l0 0.734375q0.3125 -0.421875 0.703125 -0.640625q0.390625 -0.21875 0.953125 -0.21875q0.71875 0 1.28125 0.375q0.5625 0.375 0.84375 1.0625q0.28125 0.671875 0.28125 1.5q0 0.875 -0.3125 1.578125q-0.3125 0.6875 -0.921875 1.0625q-0.59375 0.375 -1.25 0.375q-0.484375 0 -0.875 -0.203125q-0.375 -0.203125 -0.625 -0.515625l0 2.78125l-0.96875 0zm0.875 -5.0q0 1.09375 0.453125 1.625q0.453125 0.515625 1.078125 0.515625q0.640625 0 1.09375 -0.53125q0.46875 -0.546875 0.46875 -1.703125q0 -1.078125 -0.453125 -1.625q-0.4375 -0.546875 -1.0625 -0.546875q-0.625 0 -1.109375 0.578125q-0.46875 0.578125 -0.46875 1.6875zm8.801498 2.8125l0 -0.84375q-0.671875 0.96875 -1.8125 0.96875q-0.5 0 -0.953125 -0.1875q-0.4375 -0.203125 -0.65625 -0.484375q-0.203125 -0.296875 -0.28125 -0.71875q-0.0625 -0.28125 -0.0625 -0.90625l0 -3.53125l0.96875 0l0 3.15625q0 0.765625 0.0625 1.03125q0.09375 0.375 0.375 0.59375q0.296875 0.21875 0.734375 0.21875q0.4375 0 0.8125 -0.21875q0.390625 -0.234375 0.546875 -0.609375q0.15625 -0.390625 0.15625 -1.109375l0 -3.0625l0.96875 0l0 5.703125l-0.859375 0zm4.3014984 -0.859375l0.125 0.84375q-0.40625 0.09375 -0.71875 0.09375q-0.53125 0 -0.828125 -0.171875q-0.28125 -0.171875 -0.40625 -0.4375q-0.109375 -0.265625 -0.109375 -1.140625l0 -3.28125l-0.71875 0l0 -0.75l0.71875 0l0 -1.40625l0.953125 -0.59375l0 2.0l0.984375 0l0 0.75l-0.984375 0l0 3.34375q0 0.40625 0.046875 0.53125q0.0625 0.109375 0.171875 0.1875q0.125 0.0625 0.328125 0.0625q0.171875 0 0.4375 -0.03125z" fill-rule="nonzero"></path><path fill="#000000" d="m160.3094 153.74562l0 -3.625l0.546875 0l0 0.515625q0.40625 -0.609375 1.15625 -0.609375q0.328125 0 0.59375 0.125q0.28125 0.125 0.421875 0.3125q0.140625 0.1875 0.1875 0.453125q0.03125 0.171875 0.03125 0.59375l0 2.234375l-0.609375 0l0 -2.203125q0 -0.375 -0.078125 -0.5625q-0.0625 -0.1875 -0.25 -0.296875q-0.1875 -0.109375 -0.421875 -0.109375q-0.40625 0 -0.6875 0.25q-0.28125 0.234375 -0.28125 0.9375l0 1.984375l-0.609375 0zm3.7038422 -1.5l0 -0.625l1.890625 0l0 0.625l-1.890625 0zm4.758072 1.5l-0.609375 0l0 -3.921875q-0.234375 0.21875 -0.59375 0.4375q-0.359375 0.203125 -0.640625 0.3125l0 -0.609375q0.515625 -0.234375 0.890625 -0.578125q0.390625 -0.34375 0.5625 -0.671875l0.390625 0l0 5.03125z" fill-rule="nonzero"></path><path fill="#000000" d="m435.2775 145.9175q0 -1.96875 1.046875 -3.078125q1.0625 -1.109375 2.71875 -1.109375q1.09375 0 1.96875 0.53125q0.875 0.515625 1.328125 1.453125q0.46875 0.921875 0.46875 2.109375q0 1.1875 -0.484375 2.140625q-0.484375 0.9375 -1.375 1.4375q-0.875 0.484375 -1.90625 0.484375q-1.109375 0 -1.984375 -0.53125q-0.875 -0.546875 -1.328125 -1.46875q-0.453125 -0.9375 -0.453125 -1.96875zm1.078125 0.015625q0 1.421875 0.765625 2.25q0.765625 0.8125 1.921875 0.8125q1.171875 0 1.921875 -0.828125q0.765625 -0.828125 0.765625 -2.359375q0 -0.953125 -0.328125 -1.671875q-0.3125 -0.71875 -0.9375 -1.109375q-0.625 -0.390625 -1.40625 -0.390625q-1.109375 0 -1.90625 0.765625q-0.796875 0.75 -0.796875 2.53125zm11.148163 3.8125l0 -0.84375q-0.671875 0.96875 -1.8125 0.96875q-0.5 0 -0.953125 -0.1875q-0.4375 -0.203125 -0.65625 -0.484375q-0.203125 -0.296875 -0.28125 -0.71875q-0.0625 -0.28125 -0.0625 -0.90625l0 -3.53125l0.96875 0l0 3.15625q0 0.765625 0.0625 1.03125q0.09375 0.375 0.375 0.59375q0.296875 0.21875 0.734375 0.21875q0.4375 0 0.8125 -0.21875q0.390625 -0.234375 0.546875 -0.609375q0.15625 -0.390625 0.15625 -1.109375l0 -3.0625l0.96875 0l0 5.703125l-0.859375 0zm4.301483 -0.859375l0.125 0.84375q-0.40625 0.09375 -0.71875 0.09375q-0.53125 0 -0.828125 -0.171875q-0.28125 -0.171875 -0.40625 -0.4375q-0.109375 -0.265625 -0.109375 -1.140625l0 -3.28125l-0.71875 0l0 -0.75l0.71875 0l0 -1.40625l0.953125 -0.59375l0 2.0l0.984375 0l0 0.75l-0.984375 0l0 3.34375q0 0.40625 0.046875 0.53125q0.0625 0.109375 0.171875 0.1875q0.125 0.0625 0.328125 0.0625q0.171875 0 0.4375 -0.03125zm0.83566284 3.046875l0 -7.890625l0.890625 0l0 0.734375q0.3125 -0.421875 0.703125 -0.640625q0.390625 -0.21875 0.953125 -0.21875q0.71875 0 1.28125 0.375q0.5625 0.375 0.84375 1.0625q0.28125 0.671875 0.28125 1.5q0 0.875 -0.3125 1.578125q-0.3125 0.6875 -0.921875 1.0625q-0.59375 0.375 -1.25 0.375q-0.484375 0 -0.875 -0.203125q-0.375 -0.203125 -0.625 -0.515625l0 2.78125l-0.96875 0zm0.875 -5.0q0 1.09375 0.453125 1.625q0.453125 0.515625 1.078125 0.515625q0.640625 0 1.09375 -0.53125q0.46875 -0.546875 0.46875 -1.703125q0 -1.078125 -0.453125 -1.625q-0.4375 -0.546875 -1.0625 -0.546875q-0.625 0 -1.109375 0.578125q-0.46875 0.578125 -0.46875 1.6875zm8.801483 2.8125l0 -0.84375q-0.671875 0.96875 -1.8125 0.96875q-0.5 0 -0.953125 -0.1875q-0.4375 -0.203125 -0.65625 -0.484375q-0.203125 -0.296875 -0.28125 -0.71875q-0.0625 -0.28125 -0.0625 -0.90625l0 -3.53125l0.96875 0l0 3.15625q0 0.765625 0.0625 1.03125q0.09375 0.375 0.375 0.59375q0.296875 0.21875 0.734375 0.21875q0.4375 0 0.8125 -0.21875q0.390625 -0.234375 0.546875 -0.609375q0.15625 -0.390625 0.15625 -1.109375l0 -3.0625l0.96875 0l0 5.703125l-0.859375 0zm4.3015137 -0.859375l0.125 0.84375q-0.40625 0.09375 -0.71875 0.09375q-0.53125 0 -0.828125 -0.171875q-0.28125 -0.171875 -0.40625 -0.4375q-0.109375 -0.265625 -0.109375 -1.140625l0 -3.28125l-0.71875 0l0 -0.75l0.71875 0l0 -1.40625l0.953125 -0.59375l0 2.0l0.984375 0l0 0.75l-0.984375 0l0 3.34375q0 0.40625 0.046875 0.53125q0.0625 0.109375 0.171875 0.1875q0.125 0.0625 0.328125 0.0625q0.171875 0 0.4375 -0.03125z" fill-rule="nonzero"></path><path fill="#000000" d="m467.20456 153.74562l0 -3.625l0.546875 0l0 0.5q0.171875 -0.265625 0.453125 -0.421875q0.28125 -0.171875 0.640625 -0.171875q0.40625 0 0.65625 0.171875q0.265625 0.171875 0.375 0.46875q0.421875 -0.640625 1.125 -0.640625q0.53125 0 0.8125 0.3125q0.296875 0.296875 0.296875 0.921875l0 2.484375l-0.609375 0l0 -2.28125q0 -0.375 -0.0625 -0.53125q-0.046875 -0.171875 -0.21875 -0.265625q-0.15625 -0.09375 -0.359375 -0.09375q-0.390625 0 -0.640625 0.25q-0.25 0.25 -0.25 0.8125l0 2.109375l-0.609375 0l0 -2.359375q0 -0.40625 -0.15625 -0.609375q-0.15625 -0.203125 -0.5 -0.203125q-0.25 0 -0.46875 0.140625q-0.21875 0.125 -0.328125 0.390625q-0.09375 0.265625 -0.09375 0.75l0 1.890625l-0.609375 0zm5.6720886 -1.5l0 -0.625l1.890625 0l0 0.625l-1.890625 0zm4.7580566 1.5l-0.609375 0l0 -3.921875q-0.234375 0.21875 -0.59375 0.4375q-0.359375 0.203125 -0.640625 0.3125l0 -0.609375q0.515625 -0.234375 0.890625 -0.578125q0.390625 -0.34375 0.5625 -0.671875l0.390625 0l0 5.03125z" fill-rule="nonzero"></path></g></svg>

